<?xml version="1.0" encoding="utf-8"?>
<!-- Generator: Adobe Illustrator 25.4.6, SVG Export Plug-In . SVG Version: 6.00 Build 0)  -->
<svg version="1.1" id="Layer_1" xmlns="http://www.w3.org/2000/svg" xmlns:xlink="http://www.w3.org/1999/xlink" x="0px" y="0px"
	 viewBox="0 0 318.6 318.6" style="enable-background:new 0 0 318.6 318.6;" xml:space="preserve">
<style type="text/css">
	.st0{fill:url(#SVGID_1_);}
	.st1{fill:url(#SVGID_00000037684451989255696760000008709578148992892827_);}
	.st2{fill-rule:evenodd;clip-rule:evenodd;fill:#CFB66C;}
	.st3{fill-rule:evenodd;clip-rule:evenodd;fill:#E2CC85;}
	.st4{fill-rule:evenodd;clip-rule:evenodd;fill:#F1D789;}
	.st5{fill-rule:evenodd;clip-rule:evenodd;fill:#F4ECB4;}
	.st6{fill-rule:evenodd;clip-rule:evenodd;fill:#F3E19D;}
	.st7{fill-rule:evenodd;clip-rule:evenodd;fill:#F2E8B0;}
	.st8{fill-rule:evenodd;clip-rule:evenodd;fill:#F5EEC0;}
	.st9{fill-rule:evenodd;clip-rule:evenodd;fill:#E6DB9D;}
	.st10{fill-rule:evenodd;clip-rule:evenodd;fill:#E5CB7A;}
	.st11{fill-rule:evenodd;clip-rule:evenodd;fill:#D8C173;}
	.st12{fill-rule:evenodd;clip-rule:evenodd;fill:#E0CD81;}
	.st13{fill-rule:evenodd;clip-rule:evenodd;fill:#DFC57C;}
	.st14{fill-rule:evenodd;clip-rule:evenodd;fill:#E5CC7C;}
	.st15{fill-rule:evenodd;clip-rule:evenodd;fill:#D2C281;}
	.st16{fill-rule:evenodd;clip-rule:evenodd;fill:#E2C270;}
	.st17{fill-rule:evenodd;clip-rule:evenodd;fill:#CCB360;}
	.st18{fill-rule:evenodd;clip-rule:evenodd;fill:#D5B457;}
	.st19{fill-rule:evenodd;clip-rule:evenodd;fill:#D2B257;}
	.st20{fill-rule:evenodd;clip-rule:evenodd;fill:#D2B159;}
	.st21{fill-rule:evenodd;clip-rule:evenodd;fill:#C2A44D;}
	.st22{fill-rule:evenodd;clip-rule:evenodd;fill:#CAA13E;}
	.st23{fill-rule:evenodd;clip-rule:evenodd;fill:#B59544;}
	.st24{fill-rule:evenodd;clip-rule:evenodd;fill:#C89D3A;}
	.st25{fill-rule:evenodd;clip-rule:evenodd;fill:#CEB052;}
	.st26{fill-rule:evenodd;clip-rule:evenodd;fill:#CCA847;}
	.st27{fill-rule:evenodd;clip-rule:evenodd;fill:#C39D3C;}
	.st28{fill-rule:evenodd;clip-rule:evenodd;fill:#D2BA6B;}
	.st29{fill-rule:evenodd;clip-rule:evenodd;fill:#C0993A;}
	.st30{fill-rule:evenodd;clip-rule:evenodd;fill:#A88F33;}
	.st31{fill-rule:evenodd;clip-rule:evenodd;fill:#E3C571;}
	.st32{fill-rule:evenodd;clip-rule:evenodd;fill:#D8B65B;}
	.st33{fill-rule:evenodd;clip-rule:evenodd;fill:#D3AE4D;}
	.st34{fill-rule:evenodd;clip-rule:evenodd;fill:#F4EFC8;}
	.st35{fill-rule:evenodd;clip-rule:evenodd;fill:#EBCC73;}
	.st36{fill-rule:evenodd;clip-rule:evenodd;fill:#E5C66B;}
	.st37{fill-rule:evenodd;clip-rule:evenodd;fill:#E6BD62;}
	.st38{fill-rule:evenodd;clip-rule:evenodd;fill:#B6933F;}
	.st39{fill-rule:evenodd;clip-rule:evenodd;fill:#C49937;}
	.st40{fill-rule:evenodd;clip-rule:evenodd;fill:#DFC068;}
	.st41{fill-rule:evenodd;clip-rule:evenodd;fill:#C99E3D;}
	.st42{fill-rule:evenodd;clip-rule:evenodd;fill:#B58634;}
	.st43{fill-rule:evenodd;clip-rule:evenodd;fill:#E6C367;}
	.st44{fill-rule:evenodd;clip-rule:evenodd;fill:#DCBA5A;}
	.st45{fill-rule:evenodd;clip-rule:evenodd;fill:#E9CE77;}
	.st46{fill-rule:evenodd;clip-rule:evenodd;fill:#CDAE50;}
	.st47{fill-rule:evenodd;clip-rule:evenodd;fill:#D2A83E;}
	.st48{fill-rule:evenodd;clip-rule:evenodd;fill:#C29637;}
	.st49{fill-rule:evenodd;clip-rule:evenodd;fill:#AC8132;}
	.st50{fill-rule:evenodd;clip-rule:evenodd;fill:#A67A2E;}
	.st51{fill-rule:evenodd;clip-rule:evenodd;fill:#8C6228;}
	.st52{fill-rule:evenodd;clip-rule:evenodd;fill:#CBA94C;}
	.st53{fill-rule:evenodd;clip-rule:evenodd;fill:#BE9C44;}
	.st54{fill-rule:evenodd;clip-rule:evenodd;fill:#A17C34;}
	.st55{fill-rule:evenodd;clip-rule:evenodd;fill:#92723A;}
	.st56{fill-rule:evenodd;clip-rule:evenodd;fill:#B18E3E;}
	.st57{fill-rule:evenodd;clip-rule:evenodd;fill:#543E26;}
	.st58{fill-rule:evenodd;clip-rule:evenodd;fill:#806031;}
	.st59{fill-rule:evenodd;clip-rule:evenodd;fill:#B6903C;}
	.st60{fill-rule:evenodd;clip-rule:evenodd;fill:#685026;}
	.st61{fill-rule:evenodd;clip-rule:evenodd;fill:#D4B968;}
	.st62{fill-rule:evenodd;clip-rule:evenodd;fill:#CCA849;}
	.st63{fill-rule:evenodd;clip-rule:evenodd;fill:#585136;}
	.st64{fill-rule:evenodd;clip-rule:evenodd;fill:#252211;}
	.st65{fill-rule:evenodd;clip-rule:evenodd;fill:#C3B378;}
	.st66{fill-rule:evenodd;clip-rule:evenodd;fill:#E6D89C;}
	.st67{fill-rule:evenodd;clip-rule:evenodd;fill:#6F674D;}
	.st68{fill-rule:evenodd;clip-rule:evenodd;fill:#AC924C;}
	.st69{fill-rule:evenodd;clip-rule:evenodd;fill:#9F8E57;}
	.st70{fill-rule:evenodd;clip-rule:evenodd;fill:#EAC970;}
	.st71{fill-rule:evenodd;clip-rule:evenodd;fill:#D7BC6B;}
	.st72{fill-rule:evenodd;clip-rule:evenodd;fill:#453A25;}
	.st73{fill-rule:evenodd;clip-rule:evenodd;fill:#84754B;}
	.st74{fill-rule:evenodd;clip-rule:evenodd;fill:#F7F7E7;}
	.st75{fill-rule:evenodd;clip-rule:evenodd;fill:#F8F6DE;}
	.st76{fill-rule:evenodd;clip-rule:evenodd;fill:#D4C38B;}
	.st77{fill-rule:evenodd;clip-rule:evenodd;fill:#E2D59D;}
	.st78{fill-rule:evenodd;clip-rule:evenodd;fill:#CBAC5A;}
	.st79{fill-rule:evenodd;clip-rule:evenodd;fill:#D6BC6F;}
	.st80{fill-rule:evenodd;clip-rule:evenodd;fill:#DFC677;}
	.st81{fill-rule:evenodd;clip-rule:evenodd;fill:#C4A859;}
	.st82{fill-rule:evenodd;clip-rule:evenodd;fill:#927D49;}
	.st83{fill-rule:evenodd;clip-rule:evenodd;fill:#6E6342;}
	.st84{fill-rule:evenodd;clip-rule:evenodd;fill:#39331F;}
	.st85{fill-rule:evenodd;clip-rule:evenodd;fill:#292311;}
	.st86{fill-rule:evenodd;clip-rule:evenodd;fill:#3F3824;}
	.st87{fill-rule:evenodd;clip-rule:evenodd;fill:#2D2815;}
	.st88{fill-rule:evenodd;clip-rule:evenodd;fill:#82764F;}
	.st89{fill-rule:evenodd;clip-rule:evenodd;fill:#2D2816;}
	.st90{fill-rule:evenodd;clip-rule:evenodd;fill:#574F35;}
	.st91{fill:none;}
	.st92{fill-rule:evenodd;clip-rule:evenodd;fill:#DEC270;}
	.st93{fill-rule:evenodd;clip-rule:evenodd;fill:#CBAF59;}
	.st94{fill-rule:evenodd;clip-rule:evenodd;fill:#E3C677;}
	.st95{fill-rule:evenodd;clip-rule:evenodd;fill:#ECD592;}
</style>
<radialGradient id="SVGID_1_" cx="66.7671" cy="75.875" r="23.4048" gradientTransform="matrix(2.4985 1.6972 1.1456 -1.6864 -158.0401 251.4884)" gradientUnits="userSpaceOnUse">
	<stop  offset="0" style="stop-color:#000000"/>
	<stop  offset="0.8669" style="stop-color:#000000;stop-opacity:0.1331"/>
	<stop  offset="1" style="stop-color:#000000;stop-opacity:0"/>
</radialGradient>
<path class="st0" d="M154.2,276.6c-14.8,21.8-53,21.7-85.3-0.3s-46.5-57.4-31.7-79.2s53-21.7,85.3,0.3S169,254.8,154.2,276.6z"/>
<radialGradient id="SVGID_00000096040005504915032150000007845405381918623888_" cx="116.6193" cy="135.209" r="23.404" gradientTransform="matrix(2.4434 -1.7756 -1.1985 -1.6492 94.3502 674.8558)" gradientUnits="userSpaceOnUse">
	<stop  offset="0" style="stop-color:#000000"/>
	<stop  offset="0.8669" style="stop-color:#000000;stop-opacity:0.1331"/>
	<stop  offset="1" style="stop-color:#000000;stop-opacity:0"/>
</radialGradient>
<path style="fill:url(#SVGID_00000096040005504915032150000007845405381918623888_);" d="M274.4,203.2c15.5,21.3,2.4,57.2-29.1,80.2
	c-31.6,23-69.8,24.3-85.2,3c-15.5-21.3-2.4-57.2,29.1-80.2S258.9,181.9,274.4,203.2z"/>
<g id="coin">
	<g id="Layer_2_00000170241599453665964850000000232555595758497952_">
		<g id="Layer_1-2">
			<g id="Layer_1-3">
				<path class="st2" d="M249.1,136.5c0.9-0.8,1.7-1.6,2.6-2.5s1.7-1.7,2.6-2.5l2.6-2.4c0.4-0.4,0.9-0.8,1.3-1.2l1.2-1.2
					c3.6-3.3,7.1-6.6,10.6-9.8c-3.4,3.3-7,6.6-10.5,10c-0.4,0.4-0.9,0.8-1.4,1.2c-0.4,0.4-0.9,0.8-1.3,1.2l-2.6,2.5
					c-0.9,0.8-1.8,1.6-2.6,2.4C250.9,134.9,250,135.7,249.1,136.5L249.1,136.5z M252.8,141.8c0,0,18-2.8,23.7-3.6
					c6.2-0.9,18.9-2.2,18.9-2.2L252.8,141.8z M295.5,136c-3.6,0.6-7.1,1-10.7,1.4c-1.7,0.2-3.6,0.5-5.3,0.6l-2.7,0.3
					c-0.9,0.1-1.7,0.3-2.6,0.4l-10.6,1.6l-5.3,0.8c-1.7,0.3-3.6,0.5-5.3,0.7c1.8-0.3,3.6-0.6,5.3-0.9l5.3-0.9l10.6-1.7
					c0.9-0.1,1.7-0.3,2.6-0.4l2.7-0.3c1.7-0.2,3.5-0.4,5.3-0.6C288.3,136.7,291.9,136.3,295.5,136L295.5,136z M254.1,145.1
					l36.3,10.2c0,0-13.7-4.2-18.2-5.4C267.7,148.6,254.1,145.1,254.1,145.1L254.1,145.1z"/>
				<path class="st2" d="M254.1,145.1L254.1,145.1c3.1,0.7,6.1,1.4,9,2.2c3.1,0.7,6.1,1.5,9.1,2.3c3,0.9,6,1.8,9,2.8l4.5,1.4
					c1.5,0.4,3,0.9,4.5,1.4c-1.5-0.4-3.1-0.8-4.6-1.2l-4.5-1.2c-3-0.9-6-1.7-9-2.6l-9.1-2.4C260.1,146.9,257.1,146,254.1,145.1
					L254.1,145.1z M258,150.2c0,0,5.8,2.1,7.8,3c4,1.9,21.2,9.9,22.7,10.5L258,150.2z"/>
				<path class="st2" d="M288.5,163.6L288.5,163.6L288.5,163.6c-2.6-1.1-5.1-2.2-7.6-3.2l-7.6-3.4c-2.6-1.1-5.1-2.1-7.6-3.4
					c-2.5-1.2-5.1-2.2-7.6-3.4c0.7,0.2,1.3,0.4,2,0.6l2,0.6c1.3,0.4,2.6,0.9,3.9,1.4c2.6,1.1,5,2.4,7.5,3.6l7.5,3.6l3.7,1.7
					C286,162.5,287.2,163.1,288.5,163.6L288.5,163.6z M254,152.5c0,0,9.1,4.5,11.9,6.1c5.4,2.9,21,12.1,21,12.1L254,152.5z"/>
				<path class="st2" d="M286.8,170.6L286.8,170.6L286.8,170.6l-8.3-4.5l-4.1-2.3c-1.4-0.7-2.7-1.5-4.1-2.3
					c-1.4-0.7-2.7-1.5-4.1-2.3s-2.8-1.4-4.1-2.2c-2.8-1.5-5.5-2.9-8.2-4.6c3,1.2,5.8,2.6,8.6,4l2.1,1.1c0.7,0.3,1.4,0.7,2.1,1.1
					c1.4,0.8,2.7,1.6,4.1,2.4c1.4,0.8,2.7,1.6,4.1,2.4l4,2.4C281.5,167.4,284.2,169,286.8,170.6L286.8,170.6z M279.3,173.4
					c0,0-9.2-6.7-12.4-9.1s-12.8-9.8-12.8-9.8L279.3,173.4z"/>
				<polygon class="st3" points="178.5,220.8 159.6,228.7 143.4,239.9 108.6,238.6 100,210.8 85,157.1 92.8,114.5 132.6,111.5 
					151.1,129.1 176.2,133 184.4,149.3 188.7,167.4 179.9,185.4 200.5,193.4 203.4,205.1 198.4,214.5 				"/>
				<path class="st4" d="M137.4,214.2L137.4,214.2l6.6,7.1l26.4,11.1l21,6.2l35.5-9l18.2-16.6l6.8-14l-1.9-11.8l-6.1-9.5L221.5,200
					l-14.1,6l-7,0.7c0,0-3.3,2.3-5.8,3.2s-5.7,5.1-9,4.3s-6.8-0.6-10.5-2.1s-5.7-0.9-5.7-0.9s-16.6,1.5-19,4.7
					C142.2,216.4,137.4,214.2,137.4,214.2L137.4,214.2z"/>
				<polygon class="st5" points="266.7,151.3 266.6,164.2 263.9,175.7 260.7,180.7 250,175.4 256,152.4 241.6,126.7 236.4,111.6 
					253.7,113 259,121.8 263.5,135.5 				"/>
				<path class="st6" d="M244.2,213.3L244.2,213.3l2.2,1.1l3.1-1.4l5.7-6.1l1.2-7.1l1.4-3.1l1.7-4.1l1.9-6.1l2-5l2.1-7.6l0.4-5.6
					c0,0-0.8-3.6-1.1-4.8c-0.7,2.1-1.5,6-2.3,8.9c-0.6,2.2-1.1,4-1.1,4s-0.1-0.6-0.2-1c-0.6,0.7-0.9,1.4-1.2,2.5
					c-0.9-0.7-1.5-2.6-1.5-2.6s-3.2,1.6-4.1-0.7c-1.1-2.7,1.6-6.4,2.8-8.2s0.7-1.4,0.4-6c-0.4-4.6,1.4-8.5,0.7-11.6
					c-1.1-4.6-4.9-10.5-4.9-10.5v1.1l-0.5,12.3l-8.3,11.1l-4.7,12.2l-1.8,11.9c0,0,3-8.2,4.6-6.8s0.9,7.8,1.1,9.1
					c0-1,0.8-1.6,0.8-1.6l0.5,0.8l2.2-1.4c0,0-0.5,2.9,1.2,4.6c1.6,1.7,1.3,2.5,1.4,4.7c0.1,2.2-2,4.7-2.3,5.4s-0.3,0.9,0.2,2.8
					c0.5,1.9-0.4,4.1-0.4,4.1L244.2,213.3L244.2,213.3z"/>
				<path class="st7" d="M260.5,124.3L260.5,124.3L260.5,124.3c0,0-5.7-9.6-5.2-7.8c0.4,1.9,1.6,4.8,3.6,8c1.9,3.2,1.3,6.3,2.4,10
					c1.6,5.8,4.3,13,4.8,15.6s0.1,5.9-0.4,10.8c-0.3,2.9,0.1,6.5-0.2,9.7c-0.2,2.1-0.9,4.3-1.4,5.1c-1.3,2-1.4,4.7-1.8,6.4
					c-0.5,1.8-1.4,3-1.9,4.5c-0.6,1.4-0.9,4.6-1.6,7.3c-0.5,1.8-1.2,3.5-2.1,5.2l0.2,0.4c0,0,5.2-9.8,7.2-16.9
					c1.2-4.3,2.6-10.2,3.4-19.9c0.8-9.6-0.3-17.1-1.5-24.2C264.7,131.3,260.5,124.3,260.5,124.3L260.5,124.3z"/>
				<path class="st8" d="M241,121.5L241,121.5L241,121.5l-5.8,3.4l0.9,4.5l8.1,5.5l5.4,18.2c0,0,0.3,5.4,1.7,4.2
					c1.4-1.3,1.4-3.1,1.4-3.1l1.4,0.3c0,0,1.2-3.2,0.6-5.9c-0.6-2.6-1.1-8.2-1.4-9.4c-0.3-1.2-2.8-4.5-3.9-6.7
					c-1.1-2.3-1.2-3.7-2.6-5.5c-1.4-1.8-1.8-2.7-2.8-3.7C243.1,122.1,241,121.5,241,121.5L241,121.5z"/>
				<path class="st9" d="M237,129.8L237,129.8l-3.1-2.2l-5.9,6.6l10.4,6.5l4.9,19.3l5.2,2.6c0.2-2.8,2.8-4,3-6.5
					c0.2-1.2-0.2-2.9-0.4-5c-0.2-1.6-0.2-3.4-0.4-5.3c-0.6-4.6-1.5-7.1-2.3-8.7c-0.7-1.6-2.3-2.8-3.7-4c-0.8-0.7-1.1-1.1-1.9-1.7
					C240.8,130,237,129.8,237,129.8L237,129.8z"/>
				<path class="st10" d="M264.4,259.5c-10.9,10.6-23.4,19.5-37,26.3l-1.7-3.1l-10.5-13.6L216,246l8-8.7l12.8-8.6l8.6-8.4l6.7-12.5
					l1.7-2.1l2.6-7.3c0.1-0.1,0.2-0.1,0.3-0.1c0,14.4,5.1,18,5.1,18s-0.6,0.9-1.4,1.9c-0.8,1.1-1.6,2.2-1.7,3.9
					c-0.1,2.2,2.6,5.4,2.9,8.1c0.3,2,0.1,4-0.1,6.6c-0.1,1.6,0.4,3.3,1.2,7.6c0.6,3.1,0.7,8,1.4,14.5
					C264.4,259.2,264.4,259.4,264.4,259.5L264.4,259.5z"/>
				<path class="st11" d="M232.4,281.8L232.4,281.8l-0.4,1.7c-14.6,8-30.5,13.5-46.9,16.1l-73.4-11.3l-53-27.7
					c-0.1-0.1-0.2-0.2-0.4-0.4l-1-32.7l1.9-12.5l11.6-0.8c0,0,33.2,10.2,36.4,12.5c1.3,0.9,3.6,2.3,5.3,3.4c2.7,1.9,4.5,4.3,8.3,4.3
					c2.9,0,5.5-3.4,8.4-3.7c1.8-0.2,4.1,1.7,6,2.1c0.1-1.6,0.3-4.2,1.4-5.3c0.8-0.8,2.3-0.6,4,0c4,1.4,7.9,2.3,9.6,2.4
					c-0.4-1.5-0.2-2.2-0.2-2.2l9.4,2.3l20.1,7.1l16.5,15.2l14.5,13.1c0,0,1.6,5,8.5,6.2c6.8,1.3,9.8,6.1,10.3,6.9
					c-0.1-0.5,0.2-1.1,0.6-1.7C232.3,278.9,232.4,281.8,232.4,281.8L232.4,281.8z"/>
				<path class="st4" d="M259.9,263.7L259.9,263.7c-1,0.9-2,1.8-3,2.6c0.5-3.1,0.7-6,0.8-7.3C258,259.7,258.9,261.5,259.9,263.7
					L259.9,263.7z"/>
				<path class="st12" d="M206.3,294.5c-40.7,13-85,7.9-121.6-14.1c-3.8-5.6-7.7-11.5-8.5-12.6c2.6,0.7,8.8,2.6,10.3,3.1
					c-1.7-1.4-3.9-4.4-4.5-5.1s-1.9-4.1-2.8-6s-2.9-6.8-3.4-8c-0.6-1.1-1.8-2.9-2.6-4c1.9-0.6,2.1-1.4,3.4-2
					c-1.6-1.1-2.5-3.5-2.9-4.5c0.9-0.3,1.7-0.6,2.5-1.1c-0.7-1.9,0-4.2,0-5.5c0.6,0.2,1.3,0.3,2.3,0.5c0.4,0.1,0.8,0.3,1.2,0.6
					c0,0,4.2-2.4,8.3-1.2c2.1,0.6,5.6,2.9,8.6,5.1c2.4,1.8,4.3,2.6,4.4,2.6c0.3-0.1,0-1.1,0.4-1.5c7.7,6.3,7.2,9.2,6.9,10
					c6.6,3.1,16.1,12.6,16.1,12.6c1.5-0.9,3.3-1.3,5.1-1.1c3.3,0.5,5.7,4.4,8,5.4c2.2,1,3.9,0,4.6-0.3c2.1,1.3,4,3,5.5,4.9
					c3.8-0.3,6.9,0,11.8,3.3c3.2,2.2,5.8,5.2,7.3,8.8c5.3-0.1,9,6.8,11.1,8.5c0.5-1.2,1-2.3,1.6-3.4c1.6,0.8,3.7,2.6,5.6,4.1
					c1.9,1.4,3.8,2.6,5.5,2.2c1.7-0.3,2.1-3,2.4-3.8c0.7,0.5,1.7,0.3,2.9,1c0-0.9,0.4-1.1,0.4-1.1l0.8-0.3L206.3,294.5L206.3,294.5z
					"/>
				<path class="st13" d="M236.4,129.1l-1.1-1.5l-8-3.1l-16-9.5l-6.6-1.1l5,14.8l-7.1,6.3l3.8,5.2l10.9,0.6c0,0,15.4-6.2,15.8-7.3
					c0.5-1.1,2.2-2.5,3-2.8s3.4-0.9,3-1.2C238.6,129.1,236.4,129.1,236.4,129.1L236.4,129.1z"/>
				<path class="st14" d="M212.5,134L212.5,134v-0.6l-11.9-4.4l-10.5,7.3l0.6,11.3l9.6-3.4c0,0,4-5.8,5.4-7.6
					c0.9-1.1,2.9-1.7,5.2-1.7C211.6,134.8,212.1,134.5,212.5,134L212.5,134z"/>
				<path class="st15" d="M214.3,138.1l3.4,14.2l2.4,11.6l-4.8,11.5l-9.7,3.8H195l-2.6-12.5l-7.8-10l1.9-10.5c0,0,5.1,0.8,6.6-0.9
					s4.1-1.7,5.6-3.3c2.4-2.6,1.9-5.6,4.1-6.5c1.6-0.7,5.2,1.1,7.4,1.9C212.6,138.3,214.3,138.1,214.3,138.1L214.3,138.1z"/>
				<path class="st16" d="M193.9,138.7l0.3-0.6l-0.2-5.7l-2.3-2.3l-3.5-6.6l-3.7,3.6l-4.6,2.8l-0.8,8.8c0,0,0.3,4,0.7,5.3
					c0,1,0.5,3.5,0.6,3.7s0.7,0.1,1.5,2.4c0.8,2.7-0.3,3.1-0.3,3.1l1.2,0.5l0.6-0.4c0,0,2.7,0.8,3.7,0.9c1-1.6,2.9-3.3,2.9-3.3
					c-0.3-0.3-0.7-0.6-1.1-0.9c2.8-0.2,2.9-1.3,3.4-2.6c0.2-0.8,0.6-1.5,1.2-2.1c-0.7-1.1,0.1-2.9,0.4-4.4c0.3-1.4-0.4-2-0.7-2.3
					C193.3,138.8,193.6,138.7,193.9,138.7L193.9,138.7z"/>
				<path class="st17" d="M182.9,131.3L182.9,131.3v-7.1l-4.1-4.6l-19.8-7.3l-20.4-20.4l-13.3-9.4L103,101.9l-6.2,18
					c1.1-0.5,2.4-0.8,3.6-0.9c1.9-0.1,8.6,0.7,10.6,0.5s4.6-0.5,8.4-0.6c3.8,0,5.5-1.2,5.5-1.2s0.9,0.4,2.6,0.4c1.6,0,3.1-0.4,6-0.4
					c1.6,0,2.8,0.9,3.7,1.7c0.9,0.8,1.5,1.3,1.5,1.3c-0.8,0-1.7,0-2.5-0.2c1.8,0.3,3.6,2.9,5.4,5.9c1.3,2.3,2.8,3.8,3.6,4.5
					c1.7,1.5,4.1,2.2,6.8,3.1c3.7,1.3,8.8,5.4,14.5,5.4c2.3,0,3.7-1.3,5.7-1.2c1.2,0.1,2.4,0.7,3.4,1.4c1.7,1.1,3.2,2.5,4.3,4.3
					c-0.1-1.6,0.4-4.4,0.5-4.6c0.1-0.3,0.3-0.2,0.6-0.1c0.1-1.4,0.8-4.9,0.8-4.9c0,0.4,0.1,0.7,0.2,1.1
					C182.1,133.6,182.9,131.3,182.9,131.3L182.9,131.3z"/>
				<path class="st18" d="M138.6,120.9L138.6,120.9c0,0-1.1,0-2.5-0.2c1.5,0.3,3.2,2.3,4.7,4.8l5.9-2.8l-0.2-5l-9.2-23.8l-10.1-6.1
					c0,0-3.8,1-3.9,1.1c-0.1,0-11.3,6.6-11.3,6.6l-9.3,10.2l-3.3,6.2l-2.8,8.1c1.1-0.5,2.4-0.8,3.6-0.9c1.9-0.1,8.6,0.7,10.6,0.5
					s4.6-0.5,8.4-0.6c3.8,0,5.5-1.2,5.5-1.2s0.9,0.4,2.6,0.4c1.6,0,3.1-0.4,6-0.4c1.6,0,2.8,0.9,3.7,1.7
					C138,120.4,138.6,120.9,138.6,120.9L138.6,120.9z"/>
				<path class="st19" d="M138.7,122.6L138.7,122.6c0.9,1.1,1.9,2.5,2.8,4.1c1.3,2.3,2.8,3.8,3.6,4.5c1.7,1.5,4.1,2.2,6.8,3.1
					c3.7,1.3,8.8,5.4,14.5,5.4c2.3,0,3.7-1.3,5.7-1.2c0.6,0,1.2,0.2,1.7,0.4c0.3-0.7,0.9-2.2,0.8-2.4c-0.2-0.3-2.3-0.2-2.1-0.5
					s1.4-0.7,1.1-1c-0.3-0.3-2.5-1.8-4.5-2.2s-7.8-0.7-9.5-1.4c-1.7-0.8-5.5-5-7.8-7.5s-5.6-4.6-5.6-4.6l-0.6,0.3
					c0,0-0.6,1.7-1.1,1.6s-1.4-1.5-2-1.5s-1.2,0.3-2,2.4C140.3,122.5,139.6,122.7,138.7,122.6L138.7,122.6z"/>
				<path class="st20" d="M219.4,248L219.4,248L219.4,248l-3.2,4.3l-10,4.5l-6.1-1.3l-3.2-5l4.1-8.9l8.2-6.1c0,0,17.3-5.4,18.5-6.9
					c1.3-1.4,3.9-6.4,5-8.3s2.7-2.9,6.5-5.8c3.8-2.9,8.3-5.7,8.3-5.7s-0.7,2.3-0.9,4.4c0.9-2.4,2.6-4.1,3.7-5.4
					c0.5-0.5,1-1.1,1.4-1.7c0.2-0.4,0.2-1.9,1-2.1c0.8-0.2,1.4,1,1.4,1.2s-0.6,2.1-2.9,8.3c-2.3,6.1-5.7,12.1-8.6,15.3
					c-2.9,3.1-6.6,3.1-10.1,5.7c-1.6,1.2-2.9,1.7-5.1,3.8c-0.9,0.8-1.7,1.9-3,3.3C219.9,246.1,219.4,248,219.4,248L219.4,248z"/>
				<path class="st21" d="M241.4,217.1L241.4,217.1c0.1,3.4-3.3,6.1-5.7,7.3c-0.6,0.3-1.1,0.6-1.7,0.8c0,0-2.8,3.5-9.3,7.4
					c-7.5,4.6-10.8,4.3-10.8,4.3s-0.4,0.5-1.4,0.6c-0.7,0.1-1.9-0.5-2.6-0.4c-0.6,0.1-1.5,0.9-2.6,1.9s-2,1.1-2,1.1
					c0.4,0.2,0.9,0.4,1.4,0.4c1,0.1,1,0.5,0.9,0.7c0.1,0,0.3,0,0.7,0c0.5,0,1.2,0.1,1.6,0c-0.5,0.5-1.6,0.6-2.2,0.9
					c-0.6,0.3-1.6,1.1-2.3,1.6s-2.8,1-2.8,1c0.4,0.2,0.8,0.4,1.2,0.6c-0.4,0.1-1.4,1.4-1.7,1.7c0.4,0.2,0.8,0.8,1.1,0.9
					c-0.2,0.3-0.9,0.9-1.4,0.9c0,0.5,0.4,0.7,0.7,1c-1.4,1.3-1.1,2-1.1,2s0.5-0.1,0.9-0.1c-0.4,0.5-0.7,1-0.9,1.6
					c0.2,0.1,0.4,0.1,0.6,0.3c0.5,0.3,1,0.5,1.6,0.6c1.3,0.3,3,0.3,3.7-0.1c3.2-1.2,5.2-3,6.8-4.3c1.4-1,2.3-1.7,2.3-1.7
					s0.5-1.2,2-2.1c1.5-0.9,3.2-0.4,3.7-0.3c-1.1,0.6-1.6,2.2-1.9,3c0.6-0.7,1.1-1,1.4-1c0.4,0.5-0.6,1.1-0.5,1.5c0,0.1,1.1,0,1.5,0
					c-0.2,0.4-0.6,2.4-0.8,3.1c-0.2,0.8-1.2,2.4-1.2,2.4s1.3,0,1.4,0c-0.2,0.2-0.9,1.9-1,2.6c0,0.4,0.1,0.8,0.3,1.3
					c0.1,0.4,0.2,0.7,0.3,1.1c-0.2,0.6-1.8,1.8-1.9,2c-0.2,0.3,1.1,1.2,1,1.4c-0.8,1-1.9,2.4-2.1,5.1c-0.2,3,2.8,4.4,3.1,4.6
					c0,0.2-0.5,0.5-0.8,0.8c-0.1,0.2-0.2,0.4-0.3,0.6c0,0.2,1.2,1.4,3.1,4.1c1.9,2.6,1.6,5.1,1.6,5.1s0.6-1.6-3-3.1
					c-3.6-1.6-4.3-2.3-4.8-2.8c-0.1,0.9-0.1,3.5-0.2,4.7c-5.4-4.7-6.3-10.5-6.4-11.1c-0.1-0.5-0.4-0.2-0.4,0.3
					c-0.3-0.7-1.7-3.1-3.4-3.4s-3,1.2-3.7,1.9c-0.2-1.3-1.1-2.9-1.7-4.6c-0.3-0.8-0.6-1.6-0.8-2.4c-0.3,0.6-1.3,1.1-1.9,1.4
					c-0.4,0.2-0.7,0.4-1,0.6c-0.6-1.6-1.3-1.9-3.3-4.4s-0.9-4.6-0.7-5.1c-0.5,0-1.1-0.1-1.6-0.1c-1.8-0.3-3-0.7-4-0.9
					c-1.2-0.3-1.9-0.4-1.9-0.4s0.3-0.1,0.7-0.9c0.2-0.4,0.3-1.2,0.4-1.7c0.1-0.3,0.3-0.6,0.4-0.9c0,0-5.7-4.3-6.1-4.6
					c0.5-1,1.4-2.7,1.6-3c-0.4-0.1-0.6-0.1-0.9-0.1c-0.6-0.1-1.1-0.4-1.6-0.7c-0.2-0.1-0.3-0.1-0.5-0.2c0,0,0-0.1,0.1-0.1
					c-1-0.1-4,0-4,0l0.4-0.8c0,0-0.8,0.3-3.1-0.4c-1.6-0.5-3.2-1.3-4.4-1.7c-1.5-0.4-2.4-0.3-2.9-0.3c-2.4-1.3-5.7-1.7-5.7-1.7
					s0.1,0,1,0c-2.6-2.7-4.2-3.8-8.3-6c-1.6-0.9-4.2-1.9-6.5-3.4c-3.6-2.3-7.1-5.6-9.7-7.6c-4.3-3.2-6.7-4.7-6.7-4.7
					s2.5,0.1,4.3,0.2c-3.4-2.2-3.9-4.3-4.3-5.5c3.5,0.8,6.5,3.5,10.6,5.9c2.9,1.7,6.6,3.1,10.5,4.9c5.4,2.6,9.4,4.4,16.2,6
					c5.3,1.2,10.3,1.6,14.5,2c7.6,0.8,13.8,3.4,22.7,3.3c3.3-0.1,7-0.7,10.7-1.6c6.4-1.5,13.6-4,18.2-6.8
					C239.4,220.5,241.5,217.2,241.4,217.1L241.4,217.1z"/>
				<path class="st22" d="M148.3,65.2L148.3,65.2l0.9-1.9L135.5,62l-21,15.3l-27,22.2l1,25.8l0.9,8.3c0,0,1.6,9.4,2.7,13.7
					c3.7-13.7,3.1-18.8,3.2-20.3c0.1-1.6,2-5.3,3.8-7.6c1.8-2.3,2.7-8.5,6.3-13.9s7.8-8.2,11.6-9.5c3.7-1.3,4.1,0.8,4.1,2.1
					c0.9-2.5,2.1-5,3.4-7.3c1-1.6,2-2.7,2.4-3.3c0.9-1.2,2.5-4.3,3.7-5.5c1.2-1.2,2.9-0.6,2.9-0.6s-0.6-1.7,0.7-2.3
					c2.7-1.2,6,1.5,6,1.5c0.1-0.4,0.2-0.9,0.2-1.3c1.7,1.1,4.3,2.8,6.2,4.3c0.9,0.7,1.7,1.5,2.5,2.4c-0.1-3.1-1.7-5-1.7-5
					s1.1-0.5,0.9-2.2c-0.1-2.1-2.3-4.5-3.2-5.6c0.9,0.1,1.4,0,2.4-0.4c-2.7-2.8-1.9-5.3-0.8-6.7C147.2,65.7,147.7,65.4,148.3,65.2
					L148.3,65.2z"/>
				<path class="st23" d="M98.3,103.5L87.8,87.4l1.3-22.5l3.6-15.3l6.5-7.6l4.7-6.5l9.8,10.8L125.3,63l7.8,6.5c0,0-0.4,6.1-2.7,8.2
					c-2.4,2.1-6,8.6-9.5,11.4c-4.6,3.6-9.5,3.6-15.8,7.8C98.7,101,98.3,103.5,98.3,103.5L98.3,103.5z"/>
				<path class="st24" d="M90.5,130.5L90.5,130.5L90.5,130.5l-4.4,10l-10.3-9.3l-2.1-13.6l0.9-6.5l1.2-7.6l3.8-9.9l4.4-11l2.9,2.1
					c0,0,4.7,0.2,6.2,5.7s4.3,7.1,5,7.5s1.2,0.7,0.6,4.6c-1.7,3.5-5.3,12.7-7,17.9C90.7,123.6,90.3,127,90.5,130.5L90.5,130.5z"/>
				<path class="st25" d="M233.6,282.6c-11.3,6.3-23.3,11.2-35.9,14.4c0.4-0.3,0.7-0.6,1.1-0.9c-0.3-1.2-1.8-2.6-3.4-4
					c-0.7-0.7-1-1.9-0.7-2.8s1-1.5,1.8-1.8c1.4-0.4,4.3,0.6,5.8,0.4c0.6,0,0.7-0.9,1.7-0.9c0.5-0.1,1.4,1,1.6,1h0.7
					c0.3,0,2.4,0.6,4.4-0.8c2.9-1.9,4.1-5.4,9.2-6.3c3.4-0.6,5.5,0.8,7.3,0.8c0.9,0,2.6-0.6,3.2-0.8c0.6-0.1,1.8,0.3,2.1,0.4
					c0.1,0.1,0.3,0.4,0.4,0.6c0.2,0.2,0.3,0.4,0.6,0.5L233.6,282.6L233.6,282.6z"/>
				<path class="st26" d="M98.7,232L98.7,232c-2.2-0.9-4.3-2-6.3-3.3c-2.6-1.7-5-3.2-7.2-3.7s-6.3-0.6-8.8-2.1
					c-2-1.1-4.2-3.6-5.1-4.5c-0.9-0.8-3.8-1.3-5.3-1.6c-1.4-0.4-4,0.1-5.3,2.4c-1.3,2.3-0.8,4.9-0.8,4.9l-2.8,1.9c0,0-1-8.6-2.6-10
					s-1.6-3-1.8-5s0.3-4.7,0.3-4.9s-0.2-1-0.2-2.3c0.1-1,0.3-1.9,0.6-2.8l1.2-12l1.5-6.6l2.6-8.1l0.9-3.4l0.9-3.2l1.1-1.8l1.9-7.6
					l3.3-11l2.9-10.4L72,127c0,0,2.3-14.5,3.2-16c-0.3,7.7,1.4,15,1.9,18.5c1.1-1.8,6-5.2,7.5-8c1.3,4.9,1.9,16.2,1.9,16.2
					l-0.3,12.2l11.4,37.5c0,0-5.7,34.1-4.3,36.7C94.8,226.7,98.7,232,98.7,232L98.7,232z"/>
				<path class="st27" d="M98.7,287.3L98.7,287.3c-0.8-0.1-1.4-0.6-3.2-2c-1.7-1.4-2.6-1.4-3.2-1.6c0.4-0.2,1.1-0.9,1.6-1.2
					c-1.2-0.1-1.9-0.8-2.4-1.9s-1.4-2.9-3.4-4.1c-1.9-1.3-3.7-2.3-4.1-2.9c0.3-0.2,0.6-0.2,1.2-0.4c-0.7-0.2-2.2-0.4-3.4-1.1
					c-1.2-0.7-1.9-1.7-2.3-2.7c-0.6-1.9-1.6-2.1-2.1-2.3c0.2-0.8,0.1-1.8-0.5-2.4s-2.6-0.4-4-2.7c-1.1-1.7-3.7-4.8-3.7-4.8
					c0,0.4-0.1,0.8-0.2,1.2c-0.1-1.4-1.4-3.5-3.1-5.4c-0.9-1-1.1-1.5-1.9-2.6c-2.3-3.2-1.4-6.9-1.4-6.9s0.6-0.2,1.2-0.3
					c-0.9-0.6-1.1-1.3-1.4-2.6c-0.3-1.4-0.2-4.3-0.5-5.7s-1.2-4.4-1.2-5c0.1-0.4,1.1-1.1,1-1.7c-0.1-0.4-1.1-1.4-1.2-1.7
					c-0.2-0.3-0.2-0.3-0.8-3.1s-1.3-3.9-1.3-3.9c0.1,0.4,0.1,0.7,0.2,1.1c0.1,0.6-0.3,0.5-0.4,0.8c-0.2,0.3,0.1,1.4,0,1.3
					s-0.4-1.2-0.7-1.9c0,0.2-0.1,0.6-0.3,0.7c0-0.7-0.3-3.6-0.3-4.8s-1.1-6-1.2-6c-0.2,0-1.5,1.3-2.2,3.8c-0.6,2.6-2,12.5-2.1,14.9
					s0.2,6.6-0.3,10.8c-0.2,1.9-0.4,7.2-0.5,12.3C63.9,267.3,80,279.2,98,287.6C98.5,287.4,98.7,287.3,98.7,287.3L98.7,287.3z"/>
				<path class="st28" d="M134,299.1c-5.9-1.1-11.8-2.5-17.5-4.4c0-0.4-0.1-0.8-0.1-1.3c1.9,0.4,3.2,1.1,4.8,1.6
					c1.6,0.5,5.8,0.8,9.8,2.4C131.9,297.8,133,298.4,134,299.1L134,299.1z"/>
				<path class="st29" d="M61.1,195.2L61.1,195.2c0,0,0.9,1.3,2,2c0.6-2.9,0.6-5-0.3-8.5c1.4,3.5,3.4,3.6,5.3,3.8
					c0.9-4.5,0.8-13.2,0.5-15.2c0.3,1,1.4,2.3,2.1,3.3c0.1-0.6,1-1.2,1.6-1.6c0.6-0.4,0.6-1.4,0.9-2.4c2.2,1.3,3.7,1.6,3.7,1.6
					s-3-1.5-5.3-7.9c-2.6-7-0.9-10.4-0.4-14.2c2.8,8.9,8.6,16,8.6,16s-0.1-0.5,0.1-1.9c1.4,2.9,1.4,4.8,5.4,11.8
					c4,6.9,7.9,6.4,9.4,6c-6.2-8.9-12-25.5-11.8-37.8s6.1-17.8,7.6-19.7c-0.4,2.8,0.2,7,0.4,11.7c0.2,4.7,0,10,0.7,13.6
					c1.3,7.2,3.6,10.7,9.6,24.1c6,13.5,16.2,27.9,17.6,29.9c-2.6-1.1-6-3-9.1-4.3c-1.6-0.6-3.2-1.1-4.8-1.5c5.4,3.7,8.5,8.9,8.5,8.9
					s-2.3-0.4-3.6-0.4c1.7,4.4,2.6,9,2.6,9s-1.1-1.1-2.2-1.4c-1.1-0.3-2.6-0.4-3.3-0.6c-0.7,1.7-0.6,3,0,5.1c0.6,2,4.6,6.3,5.9,7.5
					c1.2,1.3,2.1,2.6,2.7,4.1c-2.1-0.8-4.9-1.7-7.3-2.7c-1.7-0.7-3.3-1.4-4.9-2.3L89.5,220c-4.4-4.6-12.9-11.6-14.8-13
					c0.2,1.4,1.4,4.6,2.6,8.1c-0.5-0.9-2.5-2.8-3.7-3.8c-1.3-1.1-5.7-3.7-7.5-4.8c0.2,0.8,0.3,1.7,0.3,2.6c0,0-1.6-3.8-3-6.6
					C61.9,199.6,61.1,195.2,61.1,195.2L61.1,195.2z"/>
				<path class="st30" d="M125.5,55.7l2.3,4.7l6.2,0.5l30.9-0.4c0,0,12.1-1.2,9.3-1.2c-4.3,0.1-28.5-3.9-35.4-3.9
					c-4.5,0-3.7,1.1-6.6,1.1c-3.3,0-5.3-0.8-5.3-0.8L125.5,55.7z"/>
				<path class="st31" d="M206.9,115.9L206.9,115.9l-0.6-1.4l-7.4-4.1l-5.7,7.3l-1.3,9.7c0.1,2,0.5,3.9,1.2,5.7
					c-0.2,3.4,0.7,5.6,0.7,5.6s1.3-0.4,2.8-2.8c1.4-2.5,2.6-2.6,4.6-3.1c2-0.4,6.3,1.3,10.2,1.4c1.8,0.1,1.4-1.1,1.4-1.1
					s1.9-0.1,2.8-1.5c1.2-1.8-0.3-3.3-0.9-3.6c0.4-0.4,0.9-0.6,1.4-0.5c-0.3-0.1-0.3-0.6-0.3-0.6c0.4,0.1,0.9,0.2,1.3,0.2
					c-1.9-1.9-2.8-3.4-4.5-5.7S206.9,115.9,206.9,115.9L206.9,115.9z"/>
				<path class="st32" d="M199.9,114.5L199.9,114.5L199.9,114.5l-1.9-2.7l-10.4-16.3l-13-18L160.3,76l-15.1,9.1L154,97l10.4-2.4
					l11.9,9.2l6.6,10.3l1.4,3.9l1.5,6.3l0.3,2.8c0,0,1.2,0.3,1.2-0.3c0.1-0.5,0.3-1,0.5-1.5c0.2,1.2,0.6,2.4,1,3.6
					c0.8,2.1,2,3,2.8,3.3c0.5,0.2,1,0.5,1.5,0.9c0,0,0.1-1.2,0-2.1c-0.1-0.9-0.2-2.1-0.2-2c0.1,0.2,0.2,0.3,0.3,0.4
					c0.7-2.1,0.8-6.1,0.8-6.1c-0.1,0.1-0.2,0.1-0.3,0.2c0.2-0.3,0.3-0.6,0.3-0.9c0.1,0.2,0.1,0.3,0.1,0.5c1.2-1.1,1.7-2.6,1.7-2.5
					s0.1,0.2,0.1,0.3c0.2-0.4,0.3-0.7,0.4-1.1c0.1-0.6-0.1-1.5,0-2.1c0.2,0.2,0.4,0.4,0.7,0.5c0,0,0.1-0.6,0.1-1.1
					c0.1-0.4,0.1-0.5-0.2-1.1C199.3,115.8,199.9,114.5,199.9,114.5L199.9,114.5z"/>
				<path class="st33" d="M125.1,88.5L125.1,88.5l6.6-10L142,75l2.1-11l21.3,1.4l13.7,13.4l4.8,11.5c0,0,3.5,10.4,0.5,7.6
					s-2.7-6.4-4.6-8.6c-1.2-1.4-2.1-2.3-2.6-3.3c-0.4-0.7-0.7-1.6-0.9-2.4c-1.9-0.6-2.3-1.8-3.3-3.3s-2.2-1.9-2.8-1.4
					c-0.5,1.7-1.9,1.2-3,1.1s-1.4-0.1-3.4,0c-2.1,0.1-2.8-0.3-3.7-0.4c0.4,0.6,1.2,0.9,1.2,0.9s-0.9,0.3-2.4,0.6
					c-1.5,0.3-1.9,1.1-2.2,1.6c-2.1,1-3.1,2.4-4.3,3.6s-1.4,1.4-2.3,1.7c0.1,1.3,0.7,1.9,0.7,1.9l0.1,1.4l-6.2,21.7
					c0,0-2.7-1.5-3.2-1.7c-0.7,2.2-2.1,4.8-2.1,4.8s-1.2-2.3-4-5.4c-2.7-3.2-3.6-5-3.7-6c-0.2-1,0.4-1-0.1-2.2
					c-0.2-0.6-1.7-1.3-2.1-1.8c-0.4-0.5-0.7-1.6-0.8-2.6s1.9-0.9,1.9-0.9c-0.2-0.2-0.4-0.5-0.5-0.8c-0.1-0.4,1.1-0.5,2.1-0.3
					c1,0.3,2.8,1,2.8,1s-0.1-1.5-1.1-3.5c-1-1.9-2.8-2.4-5.3-3.7C126,88.7,125.1,88.5,125.1,88.5L125.1,88.5z"/>
				<path class="st22" d="M121.7,90.9l-2.7,4.8c1.7,0,2,1.4,2,2.4c0.9-2.5,2.1-5,3.4-7.3c1-1.6,2-2.7,2.4-3.3
					c0.9-1.2,2.6-4.3,3.7-5.4c1.2-1.2,2.9-0.6,2.9-0.6s-0.6-1.7,0.7-2.3c2.7-1.2,6,1.5,6,1.5c0.1-0.4,0.2-0.9,0.2-1.3
					c1.7,1.1,4.3,2.8,6.2,4.3c0.9,0.7,1.7,1.5,2.5,2.4c-0.1-3.1-1.7-5-1.7-5s1.1-0.5,0.9-2.2c-0.1-2.1-2.3-4.5-3.2-5.6
					c0.9,0.1,1.4,0,2.4-0.4c-2.7-2.8-1.9-5.3-0.8-6.7c0.4-0.5,0.9-0.8,1.5-1l0.5-1.2c-2.7,0.2-6.9,0.6-7.1,0.8
					c-0.3,0.3-4.8,8.5-4.8,8.5l-6.3,4.8L121.7,90.9L121.7,90.9z"/>
				<path class="st34" d="M255.7,127.6L255.7,127.6c0-1.1,0-2.3-1.3-3.7c-1.2-1.4-3.3-0.9-3.3-0.9c-0.2-0.9-0.5-1.8-0.9-2.7
					c-0.7-1.4-3.5-2.5-5.6-3.8c-2.1-1.4-2.4-3.1-2.4-3.1l-7.3-4l1.7-7.7l5.7-1.6l8.1,3.7c0,0,2.9,5.6,3.3,10.1c0.3,4.5,1.3,6,1.9,9
					C256.4,126,255.7,127.6,255.7,127.6L255.7,127.6z"/>
				<path class="st35" d="M239.3,125.5L239.3,125.5L239.3,125.5l-4.9-0.4l-12.5-8.4l7.8-9.6l3.7-18.2l0.8-9.7l6.5-0.4l6.2,6.9
					l6.4,11.6l3.6,11.3l1.6,6.8l2.5,8.2l-0.4,0.6c0.6,2.6,0.5,2.7,0.7,5.1c-0.5-4.2-4.4-8.9-6.7-12.2c-1.1-1.6-1.8-3-1.8-3.3
					c-0.2-0.8,0.4-1.9-0.3-3.1c-0.5-0.9-2.4-0.6-3.9-2.3c-2.1-2.1-3.6-6.4-5.6-6.9c-2.9-0.7-5.2,0.3-5.7,2.9
					c-0.6,2.7,3.4,4.3,4.4,5.8s0.7,2.6,0.7,6.9s-1.2,9.1-1.7,10C240,125.9,239.3,125.5,239.3,125.5L239.3,125.5z"/>
				<path class="st36" d="M235.4,129L235.4,129l-0.8-0.1l-3.7-1.9l-9.1-7.8l1.4-2.8c0,0,3.8-0.5,5.4-1.2c1.6-0.8,3.3-0.2,3.3-0.2
					s-0.3-0.5,0.3-0.9c0.5-0.4,1.2,0,2.1,0.3c0.8,0.3,1.6,0.6,1.9,0.8c0.5,0.3,0.8,0.9,1.1,1.3s0.9,1.1,1.1,1.5
					c0.2,0.3,0.5,1.1-0.2,2.4c-0.6,1.2-0.4,1.7-0.2,2c-0.7,0.3-1.3,0.9-1.4,1.3c-0.1,0.4,0.4,0.6,1.2,0.6s2.1,1.1,2.7,1.5
					c-0.8,0.1-1.5,0.3-2.2,0.6c0.3,0,0.5,0,0.8,0.1c-0.5,0.1-1,0.5-1,0.5s-0.2-0.4-0.8-0.3c-0.4,0-0.7,0.4-0.6,0.8
					c0,0.2,0.7,0.6,0.8,0.9c0.1,0.3-0.3,0.5-0.6,0.7C236.5,129.2,235.4,129,235.4,129L235.4,129z"/>
				<path class="st37" d="M222.9,116.2L222.9,116.2l-1.1-2.3l-9.1-9.4l-15-6.4l-2-0.4v6.7l2.6,7.3c0,0,1.1,2.4,1.6,2.6
					c0.3-0.4,0.4-1.3,0.6-1.4c0.1-0.1,0.3,0.1,0.3,0.1c0.1,0.1,0.3,0.3,0.3,0.3c0,0.1-0.1,0.1-0.2,0.2c3.4,0.5,6,2.4,6,2.4
					c0.1-0.2,0.3-0.4,0.6-0.4c0.5-0.1,0.5,0.7,0.5,0.7s0.8,0.2,2.3,1.2s2.6,2.6,5.4,4.5c1.4,1,0.3,2.6,3.7,4.6
					c3.4,2.1,6,1.6,6.9,1.6c0.9-0.1,1.4-0.9,1.3-1.7c1.6,0,5.7,2.6,7.8,2.6c-1-0.3-3.9-2.3-4.3-2.9c-0.4-0.8-1.4-2.3-2.4-3.6
					c-1-1.2-2.8-2.6-3.1-2.9c-0.3-0.4,0.4-0.6,0.8-0.7C225.7,118.1,222.9,116.2,222.9,116.2L222.9,116.2z"/>
				<path class="st38" d="M179.6,83.4L179.6,83.4l2.3-5.5l7.6,2.4c0,0,3.5,12.6,5.6,16.2s2.1,5.1,2.5,7.2s0.1,4,0.4,5.5
					c0.3,1.6,1.2,3.9,1.9,5.1c-1.3-1.3-4-4.8-6.5-7.5c-2.6-2.8-4.9-3.6-6.8-4.8c-1.9-1.2-2.6-3.1-3.1-4.1c-0.4-0.9-1.4-1.8-1.4-1.8
					c0.5,0.1,1,0.2,1.4,0.4c-1-1.3-1.1-4.3-2.2-6.4c-1.1-2-1.1-2.3-2.4-4.2s-1.3-2.8-1.6-3.6C178,82.9,178.8,83.3,179.6,83.4
					L179.6,83.4z"/>
				<path class="st39" d="M185.1,78.8l-6.5-7.6l-13.4-8.1c0,0-2.9,2.6-1.1,4.3c1.8,1.7,3.5,2.3,4,3.3c-1.2-0.1-2,0.3-3.4,0
					c4.6,2,4.4,2.8,7.2,4.8c2.8,1.9,5.6,3.6,6.6,4.6c-0.2-0.1-1.6,0.4-2.5,0.5c2.3,1.5,3.2,3.4,4.3,4.6c1.1,1.1,2.8,2.1,5,3.4
					c1.3,0.8,2.4,1.9,3.2,3.1c0.2-0.9,0.2-1.8,0-2.7c-0.4-1.4,0.2-1.2-0.4-4.1C187.4,82.1,185.1,78.8,185.1,78.8L185.1,78.8z"/>
				<polygon class="st40" points="220.6,74.2 208.1,60.5 203.7,41.9 204.1,30 208.6,23.9 211.9,22.2 212.4,22.9 212.9,24.7 
					213.5,30.2 213.2,38.8 213.2,53.5 217.2,64.2 221.1,70.4 221.4,72.8 				"/>
				<path class="st30" d="M211.4,21.5L211.4,21.5c0,0-0.8-0.4,0.3,0.6c1.1,0.9,1.1,4.8,1.2,10.1c0.1,5.3-2.1,11.1-1.2,20
					c0.6,6,3.4,10.1,5.6,13.8c1.6,2.6,2.8,4.9,2.8,4.9l6.8,4.5c0,0,6.3,0.9,12.1,4.8c3.5,2.4,7,6.9,9.9,12.1
					c1.8,3.2,3.3,6.9,4.5,9.8c3.1,7.6,2.4,12,4.6,16c2.3,4,2.4,6.2,2.4,6.2l1,1.7c0,0-4.5-25.1-9-34c-2.9-6-7-10.9-10.1-13.6
					c-1.5-1.4-2.9-1.9-3.7-2.4c-2.3-1.3-8-1.8-9.1-2.1c-0.6-0.1-4.8-1.8-7.6-4.3c-2.5-2.2-3.6-5.1-4.1-6.1c-1.1-2-1.3-5.3-1.7-7.8
					c-0.4-2.4-1.1-4.9-1.4-9.1c-0.3-4.1-0.5-8.5-0.9-16.8C213.4,21.6,211.4,21.5,211.4,21.5L211.4,21.5z"/>
				<path class="st41" d="M211.4,61.3L211.4,61.3l-16.2-4.9l4.1-12.7l1.6-10.1c0,0,1.5-7.6,3.5-9.9c1.4-1.5,3.3-2.4,5.4-2.5
					c1-0.1,1.9,0.6,2.2,0.9c0.3,0.4-0.3,1.1-1.6,2.9c-1.3,1.7-3.7,4-4.3,6.5c-0.8,3.4-0.6,6,0,12.2c0.1,1.1,0.6,2.4,0.9,3.7
					C208.4,53.9,211.4,61.3,211.4,61.3L211.4,61.3z"/>
				<path class="st42" d="M183.2,53.6L183.2,53.6c2.4-0.5,4.6-3.5,6.1-5.3c0.9-1.3,1.3-1.8,1.5-2.4c0.6-1.4,3.1-9.7,4.5-12.3
					c1.3-2.6,4.4-5.2,4.8-5.6c0.3-0.4,0.3-1.1,2.3-2.9c2.4-2.3,4.5-2.6,4.8-2.7c-0.6,0.9-0.3,1.3-0.4,1.8c-0.6,0-0.9,0.2-1.4,0.3
					c0,1.1-0.1,1.5-0.3,3.2c-0.1,1.7-1.4,2.8-2.3,8.2c-0.6,3.7,1.2,9.3,0.2,13.4c-1.4,6.1-6.1,6.9-6.1,6.9s-10-0.9-11-0.4
					c-0.7-0.5-1.1-1.3-1-2.1C183.7,53.8,183.2,53.6,183.2,53.6L183.2,53.6z"/>
				<path class="st30" d="M199.6,28L199.6,28c-0.9,0.8-3.3,3.1-4.5,5.3c-1.1,2.1-2.9,7.8-3.9,10.8c1.9-2.3,2.8-5,4.3-8.4
					C196.7,33.1,198,30.5,199.6,28L199.6,28z"/>
				<path class="st43" d="M216.8,69.7L216.8,69.7l-1.6,5.4L226,90.6c0,0,2.1,2.2,3.1,5.2s1.2,6.3,1.2,6.3v0.9c0,0,1.9,2.9,2.7,3.8
					c4.1-4.6,3.3-11.5,3.3-12.2c1.3,1.7,2.6,2.2,2.9,2.2s0.5-0.8,0.8-0.9c0.2,0,1.4,0.5,2.4,0.9c1.5-11.5-3.6-15-3.9-15.3
					c0.7-0.7,0.7-1.9,0.7-1.9s0.1-0.1,0.4-0.4c-3.2-0.9-7.2-2.4-11-4.1c-1.4-0.6-2.9-1.3-4.5-2.1C219.4,70.3,216.8,69.7,216.8,69.7
					L216.8,69.7z"/>
				<path class="st44" d="M226.9,92.4L226.9,92.4L226.9,92.4l-13.7-0.5l-18.5,3.5l-4.7-11l-6-23.5l12.1-4.8l9.8,4.9
					c0,0,2.4,1.9,8.5,7.3s5.8,9.7,6.5,11.4c1.1,2.6,4.9,6,6.6,8.5c1.5,2.1,1.2,4.3,1.1,4.9C228,93,227.4,92.7,226.9,92.4L226.9,92.4
					z"/>
				<path class="st45" d="M219.9,86l-8.3,17.8l-6.1-4.6c0,0-9-9-8.2-11.4c0.7-2.4,1.1-6.8,1.2-8.8s0.5-8.9,3.8-9.3
					c3.4-0.3,7.2,5.1,10,7.9s5.3,3.5,5.3,3.5v2.1L219.9,86L219.9,86z"/>
				<path class="st46" d="M212.7,110L212.7,110c0,0-1.3-0.9-2.5-1.6c-1.2-0.9-3.6-4.1-4.7-5.1c-1.1-1-3.2-0.8-3.2-0.8
					c0.2,0.1,0.5,0.2,0.7,0.4c-2-0.1-2.4-1-3.6-1.8c-1.1-0.8-2.7-2.4-2.7-2.4s-1.6-1.8-2-6.2s2.3-6.6,2.8-6.8
					c0.4-0.2,0.8-0.5,1.2-0.8c0,1.5,0.2,2.9,0.6,4.3c0.6,2.2,2.7,4.3,6.1,7.6c3.4,3.2,4.5,5.9,4.5,5.9s1.5,1.9,2.3,3.7
					C210.8,107.1,212.7,110,212.7,110L212.7,110z"/>
				<path class="st47" d="M128.5,60.8L128.5,60.8c0,0,3.4,7.4,7.9,7.9c18.8-8.9,36.7,0.4,39,1.9c2.3,1.4,8.2,7.2,11.8,11.4
					c3.6,4.2,3.2,7.7,5.4,12.6s2.9,4.9,4.2,5.7c1-2.9-0.7-4.1-1.4-6.6c-0.8-2.5-0.5-4.4-1.6-8s-3.7-8.7-4.5-12.2
					c-0.4-1.6-1.3-8.2,1.8-12c3.1-3.9,12.1-1.9,12.9-1.8c-13.5-9.4-17.8-5-19.5-3.9c-10.3,0.5-17.8,3.4-26,3.3
					c-7.6,0-15.4-0.4-20.7-0.2C134.7,59.1,131.5,59.7,128.5,60.8L128.5,60.8z"/>
				<path class="st48" d="M196.4,57.3L196.4,57.3L196.4,57.3c1.2,0.2,2.3,0.5,3.4,1c2,0.8,5.9,3.2,11,7.8c4.8,4.4,8.3,6,8.4,6
					l0.4-0.4c0.1-0.1,0.1-0.2-0.1-0.5s-0.1-0.4-0.1-0.4c-0.1,0.2-0.2,0.4-0.1,0.6c-2.3-2-4.3-5.9-6-8.4s-5.2-7.4-9.2-7.8
					c-2.3-0.3-6.7,0.6-6.7,0.6c-0.3,0.3-0.5,0.6-0.7,1C196.5,57,196.5,57.1,196.4,57.3L196.4,57.3z"/>
				<path class="st49" d="M110,38.3L110,38.3L110,38.3l0.6,3.4l4,7.1l3.2,6.4l5.1,7.5c0,0,3.2,4.4,5.6,8.4c2.4,4,4.4,3.6,4.7,3.6
					c0.2-1,0.7-2,1.3-2.9c0.5-0.7,1.5-1.8,2.1-2.7c0.3-0.3,0.5-0.7,0.8-1.1c0,0-0.5,0.3-0.9,0.6c0-0.9-0.6-2.8-1.4-3.9
					c-0.9-1.1-4.4-4.9-7.4-8.4c-3-3.4-5.7-5.5-8.1-8.1c-2.5-2.8-5.4-5.4-7.7-7.8C110.8,39.3,110,38.3,110,38.3L110,38.3z"/>
				<path class="st30" d="M104.8,33.2l0.1,1.2l2,3.6l5.1,4.6l1,0.1c0,0-2.8-3.9-4-5.4C107.9,35.7,104.8,33.2,104.8,33.2L104.8,33.2z
					"/>
				<path class="st50" d="M105.7,234.4L105.7,234.4c0,0-3.1-2.6-8.4-6c-5.5-3.2-8.7-8.4-11.1-12.9s-5-6.1-6.9-7.3
					c1.1,0.6,1.9,0.2,3.9,0.9c-4.6-5.7-3.6-9.4-3.6-9.4l3.5,1.5c0,0,0.1-1.5-1.6-4.1c-1.9-3.1-5.6-7.9-5.6-7.9s0.1-0.5,0.7-1.3
					c0.9,2.1,8.3,9.2,12,12.3s8.5,6.5,11.2,8.5c2.1,1.6,2.6,4.1,3.6,5.1c-0.2,0.2-2,0.6-2.4,1c0.4,0.8,0.8,1.9,1.6,3.5
					c-3.2-1.1-8.5-5.6-8.5-5.6s0.3,1.5,3.3,8.4c2.9,6.8,6,8.7,7.1,9.9C105.8,232.4,105.7,234.4,105.7,234.4L105.7,234.4z"/>
				<path class="st51" d="M119.4,63.4L119.4,63.4c0,0,2.2,3.1,3,3.8c0.8,1,1.5,1.6,2.3,2.6c-1.1-1.9-3.6-7-4.8-8.7
					c-1.2-1.7-3.5-6.5-3.5-6.5l-3.8-8.7h2.6c0,0,3.4,7.3,4.3,9c0.8,1.7,3.6,7.4,6.3,10.3c2.3,2.5,3.3,5.1,3.4,5.8
					c0.1,0.4,0,2.1,0,3.4c-0.1,1.1-0.2,1.9-0.3,2.3c-0.3-0.4-0.7-1.1-1-1.6c-0.5,0.7-0.9,1.6-1.3,2.3c-0.3-0.8-0.9-2.2-1.1-3.2
					c0,0.7,0.1,1.3,0.1,4.6c0.1,3.3-0.5,6.1-0.8,6.9c-0.6-1.2-1.2-4.6-1.6-5.6c-0.3,0.3-0.4,0.7-0.6,1.3c-0.7-1.6-0.5-4.9-0.5-8
					c0-0.9-0.2-1.6-0.3-2.4C121.5,67.7,119.5,63.4,119.4,63.4L119.4,63.4z"/>
				<path class="st52" d="M104.7,32.8L104.7,32.8l-0.4,0.1l-0.3,1.4l0.5,0.6c0,0,0.2,2.2,1.5,4.9s4,6.3,6.5,9.3
					c2.5,3.1,3.5,5.8,4,7.1c1.4-6.3-1.6-11.6-3.1-13.6c-1.6-2-5-4.5-6.6-6.4C105.8,35.4,105.2,34.2,104.7,32.8L104.7,32.8z"/>
				<path class="st30" d="M53.5,200.8L53.5,200.8c-0.3-2.6,0.7-11.4,1-13.9s1.2-7.1,3.3-12.6c1.1-2.8,2.6-7.2,3.7-10.6
					c1.1-3.4,1.5-5.8,1.8-7c0.3-1.4,0.3-3.5,0.9-6.3c0.5-2.2,1.4-4.8,2.6-7.8c1.4-3.6,2.5-6,3.1-8.3c0.6-2.1,0.9-4.3,1.2-6.3
					c0.6-4.2,1-10.5,2.1-17.3s3.4-11,3.7-11.4c0.4-0.4,1.9-4.1,3.4-8.4c1.6-4.3,3.8-9.8,3.8-9.8s0.9-0.4,0.9,0.3
					c-0.8,2.7-5.3,13.6-7,17.9c-0.9,2.3-1.9,6.1-2.4,9.3c-0.3,1.8-0.4,3.7-0.3,5.5c0,0.8-0.2,2-0.6,5s-0.9,7.4-1.2,9.1
					c-0.3,1.7-1.3,4-1.5,4.7s-0.8,5-1,5.1c-0.2,0-0.1-1.2-0.3-1.4c-0.1-0.3-0.3,2.2-0.6,3.4c-0.5,2.1-1,4.1-1.7,6.1
					c-0.8,2.4-4.3,12.2-4.3,12.8s-0.5,2-0.9,3.9c-0.5,2-0.8,5-1,5.3s-1.1-0.8-1.2-0.6c-0.3,0.3,0.6,2.1,0.3,2.4
					c-0.2,0.2-1-0.3-1,0.3c0,0.3,1,0.9,1,2c0,0.6-0.9,1.1-1.2,1.6c-0.3,0.6-0.6,1.5-1.2,3.4c-0.6,1.9-0.8,2.1-1.2,2.4
					c-0.3,0.8-0.4,2.7-0.3,4.1c0.1,1.4-0.1,4.1-0.4,4.3c-0.3,0.2-1.3,0-1.8,1.7c-0.9,2.9-0.1,3.4-0.4,5.9
					C54.5,198.1,53.5,200.8,53.5,200.8L53.5,200.8z"/>
				<path class="st53" d="M104.6,32.5l-1-0.3L97,36.9l-3.5,7.6c0,0-1.2,3.8,1.8,3.6c2.8-0.2,5.9,0.8,8.7,1.2c1.7,0.3,2.8,0,3,0
					c-1.1-1.6-2.8-2.9-3.9-3.5c1.6-0.3,4.8,1.7,5.7,2.2c-0.6-0.6-0.7-0.8-1.3-2.2c-0.3-0.6-0.6-1.4-1.1-2.3c-1.7-3.4-1.5-4.8-1.5-6
					c0-0.6-0.3-1.2-0.4-2.1c-0.1-0.7-0.1-1.4-0.1-2.1c-0.1-0.5,0.3-0.6,0.3-0.6L104.6,32.5L104.6,32.5z"/>
				<path class="st54" d="M87.4,89.8c-2.2-2.2-3.4-7.1-4.5-11.4c-1.2-5.1-1.9-10-2-12c-0.2-3.7-0.1-4.6,0.9-15.4
					c1.1-10.9,4.2-16.5,4.9-17.9c0.7-1.3,2.7-4.9,9.2-4.9c6.5,0.1,8.2,3.6,8.6,4.3c-0.8,0.3-2,1.9-3.1,3.1c-1.1,1.2-3.6,3.6-4.8,5.1
					c-1.2,1.4-1.7,5.3-1.7,5.3l-2.4,5.8c0,0,0.3,14.9-0.9,25C90.4,86.9,87.4,89.8,87.4,89.8L87.4,89.8z"/>
				<path class="st51" d="M96.7,98.5L96.7,98.5c-0.5,0.6-0.6,1.2-0.8,1.7c-0.1,0.3-0.3,0.5-0.6,0.7c0,0,2.6,0.6,2.4,3.6
					c-0.2,2.6-3.1,6.2-5.3,8.3c-0.8,0.8-1.7,1.4-2.6,1.8c0.2,0.5-0.1,1.1-0.1,1.8c0,0.4,0,0.7,0,1.1c0,0-2,0.5-3.3-1.1
					c-1.9-2.4-1.2-6.8-1.1-8.1c1.1,0.1,2.3,0.1,3.3,1.2c-3.7-7-2.9-9.9-2.8-10.8c0.1,0.2,1.1,0.4,1.7,1.1c-1.2-1.8-0.7-3.9-0.6-4.6
					c2.6,3.3,6,2.9,6.9,2.9C94.7,98.3,95.7,98.5,96.7,98.5L96.7,98.5z"/>
				<path class="st55" d="M116.2,66.6L116.2,66.6L116.2,66.6L98,63.1l1.7,10.8l8,14.2c0,0,1.6,2,1.9,3.1c0.2,0.9,0.3,1.8,0.2,2.8
					c-0.6,0.2-1.1-0.7-1.4-0.8c1.2,1.4,1.2,3.3,0.9,4.3c-1-0.7-1.6-1.4-2.2-2c-0.6-0.5-1.2-1-1.9-1.4c-0.4-0.2-0.9-0.1-0.4,0.3
					s1.1,1.2,1.2,1.5c-0.6,0.2-2.7,0.3-3.5,0.4c0.7,0.9,1.1,0.9,1.7,1.2c-0.5-0.1-0.9-0.2-1.2-0.3c-5.4-0.7-5.5-3-5.5-3
					c0.1,0,0.3,0,0.4,0.1c0.2,0,0.2-0.1,0.6-0.1c0.3,0,0.6,0.4,1.4,0.6s0.8-0.2,1.2-0.5c0.4-0.3,2.4-1.2,2.6-2.8
					c0.1-2.2-3.1-5.2-4.1-6.4c-1.2-1.4-6.3-4.4-7.9-6.5c-1.2-1.6-1.4-4.1-2.3-7.6c-0.9-3.4-3-10.6-1.8-15.2c1.6-6.5,6.5-9.5,7.4-9.9
					c-0.1,1.6,0.6,3.5,1.2,3.7c0.8,1.2,2.6,1.1,4.3,1.9c0.9,0.4,2.3,1.3,3.5,2c1.2,0.6,2.2,1.1,2.6,1.2c0.3,0.3,0.6,0.6,0.9,0.9
					c1.9,2.4,3.1,3.2,3.1,3.2c0.1,0.1,0,0.3,0.6,1c0.5,0.7,1.7,1.1,2.6,1.8c1.4,1.1,2.3,2.8,2.3,2.8s-0.3-0.7-0.6-1.4
					c0.5,0.6,0.9,1.2,1.2,1.9c0,0.7,0.2,1.5,0.3,2.3C116.3,66.4,116.2,66.6,116.2,66.6L116.2,66.6z"/>
				<path class="st56" d="M116.6,67.2l-3.5-2.1l-0.8,4l-5.2-1.1l-2.6,0.3c0,0.3,0.1,0.6,0.3,0.8c3,0.6,8.7,7.3,9.3,8
					c-0.8-0.1-1.8-0.1-3-0.6c4,2.3,7.2,5.3,9.3,7c1.5,1.3,2.4,1.9,2.7,2.2c-0.5-0.5-0.8-1.2-1.1-1.8c0.2,0.3,0.8,0.9,0.8,0.9
					s-0.2-2.4-0.4-3.3c-0.1-0.5-0.7-1.4-1.3-2.5c-0.3-0.6-0.7-1.6-1.1-2.1c-1.1-1.6-1.2-4-1.2-4.4s-0.3-1-0.7-1.9
					c-0.2-0.4-0.6-0.7-1.1-1.2c-0.4-0.4-0.7-1.1-0.8-1.2C117,67.5,116.6,67.2,116.6,67.2L116.6,67.2z"/>
				<path class="st57" d="M108.4,90L108.4,90L108.4,90l-3.8-2.7l-4.1-4.8L97,74.7l-4.2-8.5l-0.9-4.9l7.1-0.4l10.9,2.5l3.9,1.9
					c0,0,0.2,1.7,1.1,2.9c0.8,1.1,1.4,2.2,2,3.4c0.1,0.2,0,0.6,0,0.7s0.3,0.1,0.4,0.2s0.2,0.3,0.4,0.6c-1.9-1-3.8-2-5.4-2.6
					c-0.9-0.4-2.1-0.5-2.1-0.5s0.3,0.5,0.4,0.8c-0.5-0.2-1.6-1.2-2.1-1.5c-0.4-0.3-1-0.3-1.2-0.3c-0.1-0.2-0.1-0.2-0.6-0.3
					c-0.4-0.1-0.5,0.1-0.6,0.3c-0.3,0-0.6,0-0.9,0.1c0,0,0.3,0.2,0.7,0.4c-0.2,1.9,1.3,2.3,2.2,2.8c-2.4,0.1-4.1-0.6-4.8-0.9
					c0.3,1.7,2.3,3.2,3.9,4.3c1.1,0.7,2,1.4,2.5,1.7c0.8,2,1.9,3.6,3.1,4.9c1.7,2,3.4,3.4,3.9,3.5c0.1,0.8,0,1.3,0,2.4
					c-3.4-1.1-4.8,0.9-5.7,2.4c-0.3,0.6-0.8,1.2-1.2,1.7C109,90.7,108.4,90,108.4,90L108.4,90z"/>
				<path class="st58" d="M90.7,68.9L90.7,68.9c1,1.8,0.8,2.4,1.6,4.5c0.9,2.2,2.5,4.8,4.5,6.4s2.5,3.3,5.1,6.2
					c2.6,2.9,6.1,4.2,6.6,4.4c0.2-0.8-2.8-3.1-3.3-3.4c-0.4-0.4-1.1-1.4-2.5-3.2c-1.4-1.7-2.7-5-3.4-6.3s-1.9-3.2-3-5.6
					c-0.8-1.7-2.2-5.2-3-7.3c-0.2-0.7-0.5-1.1-0.5-1.4c0.1-1.1-0.1-1.4-0.4-1.6c0.7-0.1,3.8-0.2,5.4-0.1c1.6,0,4.1,0.7,5.7,1
					s2.8,0,6.4,1.5c1.3,0.6,3,1.5,4.5,2.3c1.1,0.6,2,1.1,2.1,1.2c0.4,0.1,0.3-0.1,0.3-0.2s-0.5-0.7-0.8-1.2s-1.8-0.9-2.1-1.1
					c-0.4-0.2-0.8-0.9-1.6-1.5c-0.8-0.6-1.9-0.6-4.1-1.4c-2.7-1.1-7.5-2.4-10-2.4s-6,0.4-6,0.4c0,0.2,0,0.4,0.1,0.6
					c-0.6,0-0.7,0.2-1.5-0.4s-1.2-1.9-2.2-4.3c1.2,4.7,0.7,4.7,0.3,5c1.7,2.7,6.4,12.3,7.1,14C95,74.1,90.7,68.9,90.7,68.9
					L90.7,68.9z"/>
				<path class="st59" d="M182.4,108.2L182.4,108.2l-4.3-0.5l-3.1,2.4l1.9,4.2c0,0,2.8,4.9,3,7.8c0.3,2.9,0.8,2.6,1.4,4.7
					c0.6,2.1,1.6,4.5,1.6,4.5c0.1-0.2,0.2-0.4,0.3-0.6c0.6,0.3,1.7-0.4,2.9-1.4s1.4-2.6,1.4-2.6c-0.1-0.2-0.3-0.4-0.5-0.5
					c0.2-1.7,0.1-2,0.1-3.7s-1.4-3.9-1.4-3.9s2.5-0.9,2.2-2.8s-2.5-2.8-3.7-4C183,110.5,182.4,108.2,182.4,108.2L182.4,108.2z"/>
				<path class="st60" d="M176.7,112.3L176.7,112.3h-3.3c0,0,4.4,8.3,5.1,9.7c0.6,1.4,1.3,1.6,1.7,1.7c-0.3-1.2,0.3-2.3,0.9-2.9
					c0.6-0.6,1.7-1.1,1.8-2.3c0.1-1.2-0.7-1.2-1.9-1.6s-1.8-1.4-2.6-2.6C177.9,113.6,177.3,112.9,176.7,112.3L176.7,112.3z"/>
				<path class="st61" d="M159.3,93.1L159.3,93.1l-0.3,0.6l-1.8,5.4l3.3,6.5l6.4,3.4l6.6,3.6c0,0,1.8,0.9,3.6,0.4s0.6-2.9,1.4-3.6
					c0.4-0.3,2.1,0.7,3.8,0.2c0.7-0.3,0.2-1.5-0.1-2.8c-0.2-0.8-0.2-1.6-0.1-2.4c0.1-0.8,0.5-0.1,1.2-1.1c0.8-0.9-0.4-2.6-2.9-5.1
					c-2.6-2.5-3.4-4.7-3.8-5.7c-0.4-1-2.5-2.7-2.9-2.9c-0.4-0.3-0.6,0.2-0.8,0.4c-0.3,0.3-0.7-0.3-0.9-0.6c-0.3-0.3-1.5-0.8-2.1-1.2
					c-0.6-0.4-2.6-1.4-3.2-1.2c-0.6,0.2,0.1,1.1,0.3,1.6c-1.2-0.4-2.6,0.2-3.8,1.1c-1.1,0.9-3.4,1.1-3.8,1.9
					C158.9,92.1,159.3,93.1,159.3,93.1L159.3,93.1z"/>
				<path class="st62" d="M165.5,108.5L165.5,108.5l-10.5,3.7c0,0-6.4,3.8-6.3,5.4c0.2,1.6-0.2,1.8-0.7,2s-0.8,0.1-1.6,0
					s-0.5,0-1.1,0s-1.4-0.4-1.6-1.1c-0.2-0.6-1-1.6-1-1.6c0.2-0.4,0.3-0.9,0.4-1.4c0.1-0.6,0-2.3-0.7-2.9c-0.4-0.4-0.7-0.8-0.9-1.4
					c0,0,1,0.2,1.4-1.6c0.6-2.2,0.7-6.6,0.5-8.7c-0.4-3.7,0-4.9,0.3-6.9c0.4-3.6,2.3-5.3,3.6-5.3c1,0,1.6,1.1,3,0.9
					c1.6,2.3,4.6,4.6,4.6,4.6s-0.7-1.5,0.3-2.1s3.5,0.8,3.9,0.8c0.1,0.4,0.1,1.3,0.7,2.1s4.3,2.3,4.3,2.3s-0.3,0-0.5,0.9
					c-0.2,0.8,1.7,1,1.7,1s-0.1,0.6-1.2,0.6c-1.1,0-1.9-0.8-3.1-0.8c-0.6,0-1.1,0.3-1.4,0.7c0.9,0.5,1.7,1.2,2.2,2.1
					c-0.2,0.1-0.4,0.2-0.6,0.4c0.8,0.9,2.7,1.6,4.1,3.1C166.6,106.8,165.5,108.5,165.5,108.5L165.5,108.5z"/>
				<path class="st63" d="M177.6,124.5L177.6,124.5l-2.3-0.8l-19.3-8.2l-6.5-0.9l-2,0.3c0,0-0.8,1.7,2.7,5.7c3.8,4.5,7.6,6,8.6,6.3
					c0.9,0.3,2.5,0.7,7,0.7C175.3,127.6,177.6,124.5,177.6,124.5L177.6,124.5z"/>
				<path class="st64" d="M170.5,125.3L170.5,125.3l-11-4.6l-0.6-8.3l1.4-3.8h7.6c0,0,3.1,1.1,4.5,2c1.3,0.9,6.3,6.3,6.3,11.3
					C178.7,127.1,170.5,125.3,170.5,125.3L170.5,125.3z"/>
				<path class="st65" d="M163,110.1L163,110.1l-0.1,13.6c0,0-1.3,1.6-1.6,1.9c1,0.2,3,0.6,6.3,0.5c4.5-0.1,7.3-2.6,7.1-5.8
					c-0.2-3.7-3.1-7.8-6.6-9.7C164.5,108.7,163,110.1,163,110.1L163,110.1z"/>
				<path class="st66" d="M164.5,110.9L164.5,110.9l-1.2,12.8c6.4,1.2,8.9-0.6,9.6-2.1s-0.6-4.6-2.1-6.5c-0.4-0.4-0.8-0.7-1.5-1.2
					c-1.1-0.9-2.4-2.3-3.4-2.8C164.9,110.6,164.5,110.9,164.5,110.9L164.5,110.9z"/>
				<path class="st64" d="M166.6,114.1L166.6,114.1L166.6,114.1l-4.3-4.2l2.8-0.9c0,0,5.6,1.4,7.4,1.6c-3.7-5-10.5-4.6-16.6-1.3
					c-6.2,3.2-8.5,5.7-8.5,5.7s1.4,0.1,3.6,1.9c3,2.4,5.7,8.5,9.8,8.3c5.3-0.3,6.8-4.4,6.8-6.9C167.6,115.6,166.6,114.1,166.6,114.1
					L166.6,114.1z"/>
				<path class="st67" d="M158.6,117.4c-0.5,0.7-1.5,0.9-1.9,0.7c-0.4-0.2-0.1-0.7,0.1-1.2c0.3-0.6,0.6-0.6,1.3-0.5
					C158.9,116.5,158.8,117,158.6,117.4L158.6,117.4z M159.8,113.8c0,0,0,0.1,0.1,0.1c0.1,0.2-0.1,0.5-0.3,0.5
					c-0.5,0.2-1.2-0.2-1.3-0.5s-0.3-1.1,0.5-1.3c0.8-0.2,1.1,0.6,1.2,1C160.1,114,159.8,113.8,159.8,113.8L159.8,113.8z"/>
				<path class="st68" d="M228.4,115.4l-2.5-0.8c0,0-7.1-3.8-7.8-4c-0.7-0.3-2.5-1.2-3.3-1.7s-1.6-1.3-2.2-1.7
					c0.2,0.3,0.7,1.2,1.1,1.7c0.3,0.4,0.7,0.7,1.4,1.4c0.8,0.7,1.4,1.7,2.3,2.6c1.4,1.5,4.3,3.9,6.6,4
					C226.4,116.9,228.4,115.4,228.4,115.4L228.4,115.4z"/>
				<path class="st69" d="M225.3,96.7L225.3,96.7l-5,6.1l-3.6,5.8l-3.2-2l-2.5-5.4l1.4-5.2l3.4-1.5c0,0,4.2,0.4,6.3,0.9
					C224.2,96,225.3,96.7,225.3,96.7L225.3,96.7z"/>
				<path class="st70" d="M229.8,101.4L229.8,101.4l-3.8-2.2l-7.7-5.3c0,0-3.7-3.8-4.6-5.7c-0.9-1.9-0.7-2.7-0.7-2.7
					s1.1,1.3,2.3,1.4c1.2,0,1.7-0.4,3.4-1.2c1.7-0.8,2.3-0.5,3.9,0.5c1.6,1,3.2,3,3.5,3.6c-0.3-0.2-0.7-0.3-1-0.3c0,0,0-0.1,1.9,2.3
					s3.2,6.5,3.5,8.2s0.6,2.3,0.6,2.3L229.8,101.4L229.8,101.4z"/>
				<path class="st71" d="M224.1,96.1L224.1,96.1L224.1,96.1c-2.2-0.9-2.4-1.3-5.3-3.4c-2.9-2.1-5-5.2-6.2-6.5
					c-0.9-0.9-3-1.1-3.7,0.4c-0.3,0.6-0.5,1.5-0.6,2.8c-0.3,4.4,0,9.1,1.6,13.8c1.5,4.7,6.9,6.8,6.9,6.8c-0.1-0.5-0.3-1-0.5-1.5
					c-0.6-0.6-1-1.4-1.4-1.9c-3.2-4.1-2.4-5.9-2.4-5.9c1.4,0.3,2.5-0.8,3-1.7c0.2-0.4,0.4-0.9,0.4-1.4c-0.2,0.1-0.5,0.1-0.8,0.1
					c-0.3-0.1-0.3-0.7-0.3-0.9c0-0.2,0.2-0.3,0.5-0.3c-0.2-0.2-0.3-0.4-0.4-0.6c0.2,0,0.4,0,0.6,0.1c0.2,0,0.5-0.1,0.7-0.1
					s0.4,0,0.6,0c-0.1-0.1-0.1-0.2-0.1-0.3c0-0.1,0.2-0.1,0.3-0.3C218.5,96.8,224.1,96.1,224.1,96.1L224.1,96.1z"/>
				<path class="st63" d="M230.8,102.9l-1-0.3l-2.8,3.1c0,0-7.3,6.1-7.6,6.2c-0.1,0.1,0.9,0.9,2.1,1.8c0.9,0.7,1.8,1.3,2.8,1.7
					c0.7,0.3,1.4,0.4,2.1,0.4c2.9-0.1,4.3-2.7,4.9-3.6s1.7-3.9,1.1-6.3C231.9,103.6,230.8,102.9,230.8,102.9L230.8,102.9z"/>
				<path class="st72" d="M226.2,112.2l0.4-6.5c0,0-6.1,6-5.2,6.6c0.9,0.6,2.4,0.7,2.4,0.7L226.2,112.2z"/>
				<path class="st73" d="M229.7,101.5l-3.8-2.4h-3.2l2.4,4.5c0,0,0.1,2.2,0.8,2.9c0.3,0.3,0.3,1.2,0.3,2c-0.1,1.3-0.2,2.5-0.5,3
					c-0.5,0.9-2.4,1.2-2.4,1.4c0,0.2,1.8,1,3.1,1c2.1,0,3.8-2,4.1-3.3c0.3-1.2,0.7-5.1,0.6-6.4c0-0.4-0.8-1.8-0.8-1.8L229.7,101.5z"
					/>
				<path class="st64" d="M231.3,103.9L231.3,103.9L231.3,103.9c-2-7.3-7.6-7.6-8.3-7.6s-4.4,0.1-6.5,3.5s-1.2,6.8-0.2,9.4
					c1.2,2.8,3.5,3.5,4.3,3.5s2.2,0.1,4.1-1.9c1.9-1.9,1.6-4.8,1.6-4.8l0.1-1.1l-1.9-2.1l-1.3-3.4c0,0,1-0.5,3.3,0.3
					C228.8,100.5,231.3,103.9,231.3,103.9L231.3,103.9z"/>
				<path class="st74" d="M163.2,113.5c-1.2-0.9-2.5-2.3-2.7-3.2c-0.1-0.5,0.6-1,1.4-0.9c2.1,0.1,3.3,1.1,4.2,1.9s1.8,3.4,0.9,3.9
					C165.9,115.6,164.8,114.8,163.2,113.5z"/>
				<path class="st75" d="M219,101.9c0.2,0.3,0.2,0.6,0.3,0.9c0,0.4-0.6,1.7-1.6,1.7c-1.3,0-1.9-1.6-1.7-2.4
					c0.2-0.7,1.1-1.3,1.7-1.2C218.8,100.9,218.9,101.8,219,101.9z"/>
				<path class="st76" d="M227.5,101.4L227.5,101.4c0,0-2.5,1.6-1.8,3.1c0.8,1.6,0.9,4.5,0.9,5.1s0.9,1.8,1.3,1.9
					c0.4,0.1,1-0.3,1.4-0.9s1.1-2.1,1.2-2.8c0.3-1.4,0.1-2.8-0.5-4C229.2,102.2,227.5,101.4,227.5,101.4L227.5,101.4z"/>
				<path class="st77" d="M227.2,101.2L227.2,101.2c0,0-1.1-0.9-1.5-1.2s-2.1-1.1-2.7-0.6c-0.6,0.5-0.4,1.2-0.3,1.7
					c-0.7-0.1-1.9,0.6-1.7,1.3c0.1,0.6,0.6,0.8,1.2,0.8c0.4,0,0.7-0.2,1.1-0.2c0.6,0,1.3,0.9,1.8,1.5c0.3,0.3,0.6,0.5,0.9,0.6
					c-0.1-0.4-0.1-1.2,0.3-1.9c0.4-0.7,1.4-0.9,1.6-1.2C228,101.7,227.5,101.4,227.2,101.2L227.2,101.2z"/>
				<path class="st78" d="M187,154.4L187,154.4c-0.3,1.7,0.6,2,0.6,2s-0.4,1.1,0.9,2.3c1.9,1.7,2.5,1.6,3.5,1.7
					c1,0.1,1.8,0.5,3.1,2.3c1.4,1.7,1.6,1.7,2.2,1.9c-0.4,1.1,0.9,1.6,1.2,2.5c0.3,0.7-0.2,1.4-0.3,1.7c3.3,0.4,4.7,1.1,5.4,1.5
					c-0.7,0.7-0.8,2.6-2.9,4.2c-1.6,1.2-3.1,0.1-4.4,1.2c-1.1,0.9-0.7,1.9-0.7,1.9l-10.1-1.9c0,0-6,0.3-6.3-0.4s-1.7,0-2.1,0.3
					c-0.1-0.2,0.3-0.7,0.9-1.1c0.6-0.4,0.6-0.6,1.3-1.2s2.3-0.9,3.1-1.1c-1.1-0.5-3.1-1.4-4.6-2c6.6-5.6,3.3-11.2,3.3-11.2
					s0.5-0.4,0.6-1s-0.9-1.3-1.3-2.1c1.2-0.2,1.9-1.8,1.9-1.8l1.1-0.8L187,154.4L187,154.4z"/>
				<path class="st79" d="M198.1,155L198.1,155c0.1,0.3,0.4,0.3-1.1,0.4c-1.5,0.2-6.6-0.3-9.6-0.7c-3.1-0.4-4.5-0.3-8.1-0.3
					c-3.9-0.1-11,1.1-13,1.5s-8.7,2.5-8.9,2.5c-0.3,0.1-0.7-0.2-0.8-0.4c-0.1-0.3,0.6-0.5,2.6-1s6.1-1.5,10.2-2.4
					c4.1-0.9,12.5-1,14.8-0.8c2.4,0.1,11,1.1,12.4,0.9C197.8,154.6,198,154.7,198.1,155L198.1,155z"/>
				<path class="st80" d="M177.7,174.8l3.6-0.4l8.5,12.2l32.7-0.9l18.5-6.1c0,0,1.3-0.1,1.7,0.4c-2.2,2.6-2.3,4.6-4.8,9.1
					c-1.1,2.1-2.6,4.4-3.6,6.1c-0.7,1.1-1.3,2.3-1.8,3.5c0,0-5.2,3.3-6.3,3.8c0.9,0.4,1.4,0.8,2.3,1.4c-2,1.1-3.1-0.5-5.3,0.3
					c-1.5,0.5-2.3,7.2-8.4,8.8c-2.5,0.6-9.6-2.7-10.8-3.3s-3.4-3.2-3.4-3.2s0.5-0.3,0.9-0.6c-0.3-0.2-1.7-0.8-2.8-1
					c0.4,0,1.4-0.7,2-1.1c-1.2-0.8-5.4-1.4-8-2.1c-2.3-0.6-3.2-1.4-3.2-1.4s2.7-0.2,4.7-0.5s3-0.1,2.8-0.5c-0.3-0.5-1.3-0.8-5.6-0.9
					c-4.3-0.1-4.7-1.3-4.7-1.3s2.1-0.3,2.3-0.4c0.2-0.2,0.6-1.5-0.3-2.8c-0.9-1.3-5.2-0.5-6.8-0.8s-1.5-0.2-4.8-1.6
					c-3.3-1.4-8.2-4.2-8.3-5.2c-0.4-1.6,2.6-1.6,2.6-1.6s-2.2-1.3-0.8-3.8C172.5,177.7,177.7,174.8,177.7,174.8L177.7,174.8z"/>
				<path class="st81" d="M226.2,193.4l-0.6-2.3l-8.1-4.6l-14.7-2.7h-4.9l-8.9,3.1c0,0-1.6,2.8-1.6,3.6c1.9-0.1,2.1,0.5,2.2,0.8
					c1.3-0.5,3-0.1,10.6,2.8c8,3.1,10,1,10.6,0.6c0.6,0,1.5,0.3,2.3,0.4c0.9,0.3,1.7,0.4,2.4,0.7c1.1,0.5,1.6,0.9,1.6,0.9
					s0-0.1,0.9-0.4c0.9-0.3,2.3,0.5,3.4-0.6s1.7-0.4,2,0c0.6-0.8,1.6-1.3,2.2-1.7C225.7,193.8,226,193.6,226.2,193.4L226.2,193.4z"
					/>
				<path class="st82" d="M231,188.2L231,188.2l-16.1-8l-18.9,0.9l-15.5-4.8c0,0-3.2,0.4-2.6,3.7c0.3,1.8,1.7,3.2,2.9,4.3
					c1,1.1,1.9,1.9,1.9,1.9s-1.9,0-1.4,1.4c0.4,1.1,0.8,0.9,1.9,1.1c1.1,0.1,1.4,0.7,1.7,1.1c0.4,0.4,0.8,0,1.2-0.2
					c-0.7,0.8-0.2,0.8,0.4,0.6s0.6-0.1,0.9,0c0.7-0.4,2.3-1.1,4.1-1.2c1.9-0.1,3.7,0.3,4.8,0c0.5-0.1,0.7-0.7,1.1-1.2
					c0.3-0.4,0.6-0.8,1-1.2c-0.1-0.3-0.4-0.5-0.8-0.8c1.4-1.2,2.5-1.1,3.4-1.1c0.3,0.6,0.8,1,1,1.4c1.1,1.5,1.5,1.7,2,2.1
					c-0.3,1.4,0.8,1.6,1.2,1.7c0.5-1.5,1.5-1.1,2.4-1.4c0.9-0.3,1-0.1,2-0.2c1-0.1,1.1-1,1.1-1.4c0.5-0.3,2.4-0.7,4,0.4
					c1.4,1,1.5,3.1,1.6,3.3s1.1,0.3,1.4,0.3c0.4,0,1.1-0.7,2.1-0.7c0.5,0,0.3,0.9,0.8,1s2.8-0.7,3.8-0.3c0.5,0.2,0.8,0.8,1.1,1.4
					c0.3,0.5,0.7,1,0.7,1s0.6-0.9,2.6-2.3C230.9,189.6,231.1,188.2,231,188.2L231,188.2z"/>
				<path class="st83" d="M245,143.5L245,143.5L245,143.5l-28.8-5c0,0-5.2-0.7-6,2.7c-0.7,3.4,1.9,7,1.9,7s-0.3,1.1,0.8,2.3
					c4.1,4.6,5.6,9.5,4.1,16.2c-1.6,6.7-5.3,9.3-5.3,9.3s-0.1,0.9-3.7,2.2c-3.6,1.3-5.1,0.9-8.3,0.4c-3.3-0.5-9.9-3.7-15.6-3.8
					c-5.1-0.1-6,1.3-6.8,2.2c1.1,1.4,3.1,2.2,5.5,2.8c1.4,0.3,2.8,0.4,4.5,0.9c2.9,0.8,7.3,2.6,10.9,3.7c1.8,0.5,3.7,0.7,5.5,0.8
					c2.4,0,6.7-1.3,8.5-1.7c1.2-0.2,3.2-0.2,5.4,0.3c1.1,0.3,2.3,0.5,3.4,1c1.6,0.8,2.5,2.1,4,3c1.7,1,3.7,1.6,5.2,1.4
					c2.7-0.3,4.8-3.5,6.3-5.1c1.1-1.1,3.5-2.6,5-4.1c0.7-0.8,1.1-1.5,1.3-2.1c0.5-1.9,0.1-3.3,0.6-5.2c0.1-0.6,0.4-0.9,0.6-1.6
					c1.3-2.9,3.3-4.2,4.5-7.8s-1.9-14.2-2.2-15.2c-0.3-1.1-0.1-0.9-0.4-2.4C245.5,144.2,245,143.5,245,143.5L245,143.5z"/>
				<path class="st84" d="M240.6,154.8L240.6,154.8c0,0-12.6,2.6-15.5,1.6c-2.8-1-3.9-0.9-4.3-0.4c-0.3,0.5,1.1,2.6,1,4.3
					c-0.1,0.8-0.9,1.7-1.5,2.5c-0.3,0.4-0.6,0.8-0.8,1.3c-0.1,0.5-0.1,1.6,0.8,2.2c0.9,0.6,1.9,0,3.6-0.9c1.9-1.1,4.1-3.3,4.1-3.3
					c0.5,0.3,1,0.5,1.6,0.5c0.6,0.1,1.2,0.3,1.7,0.6c0,0,0.6-1.6,2.5-0.7c2.4,1.1,3.3,0.9,3.3,0.9s-0.4-1.9,1.4-3.7
					c2-2,2.3-2.9,2.3-3.6C241,155.7,240.9,155.2,240.6,154.8L240.6,154.8z"/>
				<path class="st85" d="M233.1,158.3c0.6-0.1,1.2-0.2,1.8-0.2c0.5,6.6-0.9,8-0.9,8C232.3,163.4,233.1,158.3,233.1,158.3z"/>
				<path class="st64" d="M244.3,138.5L244.3,138.5c-0.8-2.5-2.1-4-5.2-5.5c-3.1-1.4-9.2-1.6-15.9,0.4s-11.3,4-11.3,8.5
					c0,2.2,1.6,2.8,3.7,5.1c1.4,1.4,3,3.6,4.3,5.3c3.5,4.3,6.5,7.1,12.3,6.9c5.8-0.2,10.5-4.6,12.4-10.5s-0.4-9.6-0.9-10.6
					C243.9,138.2,244.1,138.3,244.3,138.5L244.3,138.5z"/>
				<path class="st86" d="M222.7,168.1L222.7,168.1c0,0-0.4,0.3-1.5,0.3c-0.8,0.1-1-0.6-1.1-0.9c-0.1-0.4,0.3-1.4,1.1-1.6
					c0.8-0.1,0.9,1.9,0.9,1.9L222.7,168.1L222.7,168.1z"/>
				<path class="st87" d="M223.6,161c-1.4,0.6-4,0-4,0s0.2-0.4,0.9-0.8c0.7-0.4,2.9-0.2,3.4-0.2c0.6-0.6,1.1-0.4,1.1-0.4
					S225,160.6,223.6,161z"/>
				<path class="st88" d="M213.7,160L213.7,160c-0.1,0.2,0.8,0.6,1.2,0.8c0.4,0.3,1.3,0.3,1.4,0.3c0.1-0.1,0.1-0.3,0.3-0.8
					s0.8-0.8,1.2-1.1s0.3-0.5,0.3-0.5l-0.8-0.4c0,0,0,0.4-0.2,0.4s-0.2-0.2-0.5-0.1C215.1,158.9,213.7,159.9,213.7,160L213.7,160z"
					/>
				<path class="st89" d="M226.5,165.1L226.5,165.1c-2.3-0.3-3,0.7-3,0.8l-1-1c0,0,0.3-1.7,2.1-1.6
					C226.2,163.4,226.5,165.1,226.5,165.1L226.5,165.1z"/>
				<path class="st90" d="M216.7,156.6c0.6-0.3,1.3,0,1.8,0.8c0.6,0.8,0.2,1.3,0,1.6c-2.1-0.3-3-1.3-3-1.3
					C215.6,157.1,216.1,156.6,216.7,156.6z"/>
				<path class="st88" d="M212.1,159.2c0,0.1,0,0.4-0.3,0.5s-0.8-0.1-0.9-0.3c-0.1-0.2-0.1-0.4-0.1-0.7c0-0.2,0-0.4,0-0.5
					c0.1-0.1,0.8,0.1,0.9,0.3c0.1,0.1-0.1,0.2,0,0.4C211.7,159,212,159.1,212.1,159.2z M206.5,157.6c-0.1,0-0.6-0.1-0.8-0.4
					c-0.1-0.3,0-0.7,0.2-0.9c0.1-0.2,0.1-0.1,0.3-0.2c0.1-0.1,0.1-0.4,0.4-0.4c0.3,0,0.7,0.3,0.7,0.4
					C207.3,156.3,206.7,157.4,206.5,157.6z"/>
				<path class="st83" d="M216,159.4L216,159.4c-0.6,0.6-0.7,1.1-0.7,1.1s-0.4-0.2-0.6-0.4C215.5,159.6,216,159.4,216,159.4
					L216,159.4z"/>
				<path class="st63" d="M217.3,153.9c-0.4,0.5-2.6,1.7-2.9,1.8c-0.3,0.1-0.9-0.3-0.8-0.4c0.1-0.1,0.6-0.8,0.8-1.1
					c-0.1,0.1-0.9,0-0.9-0.2c0-0.1,0.2-0.8,0.3-0.9c0.2-0.1,0.5,0,0.7,0.1c0.1,0.1,0.2,0.3,0.3,0.5c0-0.1,0.1-0.1,0.1-0.2
					c0.1,0,0.5-0.1,0.6,0s0.2,0.3,0.5,0.3s0.5-0.3,0.8-0.3C216.9,153.4,217.4,153.7,217.3,153.9L217.3,153.9z M214,149.7L214,149.7
					L214,149.7c0-0.4-1.2-2.9-1.4-3.1c-0.2-0.3-0.7-0.3-0.8-0.1c-0.1,0.1-0.2,2.3-0.3,4.5c0,2.2,0.1,3.1,0.1,3.3
					c0.1,0.3,0.5,0.4,0.8,0.3c0.4-0.2,0.9-0.9,1.5-1.8c0.6-0.9,1.1-2.6,1.1-2.9c0-0.3-0.6-0.4-0.8-0.3
					C214.1,149.4,214,149.5,214,149.7L214,149.7z"/>
				<path class="st90" d="M216.2,162.6c0.1,0.6,0.8,1.2,1.4,1.6c0.3,0.2,0.7,0.3,1.1,0.1c0,0,0-1.5-0.8-1.9
					C217.1,162.1,216.2,162.6,216.2,162.6L216.2,162.6z"/>
				<path class="st88" d="M214.5,164.6c-0.1,0.5,0.1,1.6-0.6,1.6s-1.2-1.1-1.1-1.4c0-0.4,0.5-0.7,0.8-0.9s0.6-0.5,0.8-0.5
					c0.3,0,0.5,0.2,0.6,0.4C215,164.1,214.6,164.1,214.5,164.6L214.5,164.6z M208.9,165c-0.6,0.1-1.4-0.4-1.4-0.6
					c0-0.3,0.1-0.5,0.3-0.8c0.1-0.2,0-0.2,0.2-0.4s0.9,0.1,0.9,0.1c0.1-0.1,0.2-0.1,0.4-0.1s0.5,0.1,0.6,0.3c0.3,0,0.6,0.1,0.6,0.4
					c0.1,0.3-0.9,0-0.9,0C209.5,164.1,209.7,164.8,208.9,165z M203.8,162.8c0,0-0.6,0-0.6-0.2c-0.2-0.3,0.1-0.4,0.4-0.4
					c0.3,0,1.5,0.2,1.8,0.2c0.2,0,0.5,0.1,0.6,0.3c0.4,0.1,1,0.6,1,0.9c0,0.3-0.7,0.1-1.4,0.1c-0.8-0.1-1.6-0.4-1.8-0.6
					C203.5,163,203.8,162.8,203.8,162.8L203.8,162.8z M202,155L202,155c-0.3,0.2-0.5,0.1-0.7-0.1c-0.2-0.1-0.7-0.7-0.7-0.9
					c0-0.3,0.4-0.4,0.8-0.4c0.4,0,0.7,0.1,1,0.4c0.4-0.1,0.8,0.2,0.8,0.5c0.1,0.3-0.3,0.3-0.4,0.3c-0.1,0.1,0.4,0.6,0.4,0.8
					c0,0.1,0,0.3-0.4,0.3C202.4,155.8,202,155,202,155L202,155z M207.8,170c0,0-0.1-0.1,0.2-0.3c0.1-0.1,0.2-0.1-0.3-0.4
					c-0.4-0.3-0.6,0-0.6,0c-0.2-0.1-0.4-0.1-0.6-0.1c-0.4,0-0.6,0.2-0.8,0.6c0,0.2,0.3,0.4,0.6,0.5c0.3,0.2,0.6,0.3,0.9,0.3
					c0.4,0,0.4-0.3,0.4-0.3c0.1,0,0.2,0,0.3,0.1c0.2,0.1,0.3,0.1,0.3-0.1C208.3,170,207.8,170,207.8,170L207.8,170z M210.6,172.6
					L210.6,172.6c0,0.1-0.3,0.4-0.2,0.6c0,0.1,0.3,0.1,0.3,0.2c0,0.1-0.4,0.5-0.7,0.5s-0.9-0.3-0.9-0.4c0-0.1,0.5-1.1,0.7-1.1
					C210,172.2,210.6,172.5,210.6,172.6L210.6,172.6z M212.6,168.9L212.6,168.9L212.6,168.9c0.2,0.1,0.6,0.4,0.7,0.7
					c0.1,0.3,0,0.8-0.1,0.8s-1,0-1.6-0.1c-0.6-0.3-0.8-0.6-0.8-0.9c0-0.3,0.3-0.6,0.3-0.9c-0.1-0.1,0.2-0.2,0.5-0.1
					c0.2,0,0.3,0.1,0.4,0.3c0.1,0,0.3,0,0.4,0C212.5,168.7,212.5,168.8,212.6,168.9L212.6,168.9z"/>
				<path class="st83" d="M211.7,169.7c0.1,0.1,0.6,0.2,0.6,0.1c0-0.1,0-0.3,0-0.4c0-0.1-0.4-0.4-0.4-0.4
					C211.8,169.2,211.7,169.6,211.7,169.7z"/>
				<path class="st63" d="M215.6,167.9L215.6,167.9L215.6,167.9c0.4-0.1,0.6-0.2,0.8,0s0.3,0.6,0.3,0.9c0,0.3-0.6,0.6-1.2,0.6
					c-0.6,0.1-0.8-0.4-1.1-0.7s-0.1-0.6,0.2-0.7C214.9,167.9,215.4,167.9,215.6,167.9L215.6,167.9z"/>
				<path class="st90" d="M215.6,168.8c0,0.4,0.4,0.8,0.6,1.4c0.3,0.6,0.1,0.7-0.4,1.9c-0.3,0.8-0.8,1.6-1.2,2.3
					c0,0,0.5-0.1,1.8-0.5s3.3-0.9,3-1.8c-0.2-0.6-0.6-1-1.1-1.4c0.2,0.2,0.3,0.4,0.4,0.6c-0.4-0.3-1.6-1.9-1.9-2.2
					c-0.2-0.3-1-0.9-1-0.9S215.8,168.4,215.6,168.8z"/>
				<path class="st64" d="M244.8,170.1c-3.2,1.7-12.2,3.4-20.5,5c-3.4,0.6-6.3,1.1-8.9,1.8c-3.8,0.9-6.8,2.1-8.3,2.5
					c-1.3,0.4-3.1,0.8-5.7,1c-3.3,0.4-6.7,0.4-10.1-0.1c-8.3-1.2-11.7-4.7-11.7-4.7c1.3,0.4,2.7,0.7,4.1,0.9
					c4.3,0.6,9.3,0.9,12.2,1.6c2.4,0.5,4.6,1.2,6.8,0.9c1.9-0.3,2-0.3,5.2-1.6c0.8-0.3,1.9-1.1,3-1.5c4.2-1.5,10.6-4.3,15.8-5.6
					c3-0.8,6.1-1.3,9.1-1.5c4.1-0.3,8.1,1.2,8.5,1.2C244.4,170.2,244.6,170.2,244.8,170.1L244.8,170.1z"/>
				<line class="st91" x1="270.2" y1="118.3" x2="249.1" y2="138"/>
				<path class="st2" d="M254.1,154.5L254.1,154.5c2.2,1.5,4.3,3.1,6.4,4.7l6.3,4.8c2.1,1.6,4.3,3.1,6.4,4.6s4.3,3.1,6.3,4.8
					c-2.3-1.4-4.4-2.9-6.5-4.5s-4.2-3.2-6.3-4.8l-6.3-4.8C258.2,157.8,256.1,156.2,254.1,154.5L254.1,154.5z M265.2,172.2L251,159.5
					c1.4,0.8,5.6,4.9,9.1,8.2C262.9,170.3,265.2,172.2,265.2,172.2L265.2,172.2z"/>
				<path class="st2" d="M265.2,172.2c-1.2-1-2.4-2.1-3.7-3.2c-1.2-1.1-2.3-2.2-3.5-3.3s-2.4-2-3.6-3.1c-0.6-0.5-1.2-1-1.7-1.6
					c-0.3-0.3-0.5-0.6-0.8-0.8c-0.3-0.3-0.6-0.5-0.8-0.9c0.4,0.1,0.8,0.4,1.1,0.6c0.4,0.2,0.7,0.4,1,0.7c0.6,0.5,1.2,1,1.7,1.6
					c1.1,1.1,2.2,2.3,3.3,3.4c0.6,0.6,1.2,1.1,1.7,1.6l1.8,1.6C262.9,170,264.1,171.1,265.2,172.2L265.2,172.2z M260,171.5
					c-1.7-1.3-10-9.4-10-9.4L260,171.5z"/>
				<path class="st2" d="M252.6,164.5l2.4,2.4c0.9,0.8,1.7,1.5,2.6,2.3l2.4,2.4c-0.9-0.7-1.7-1.4-2.6-2.2s-1.6-1.6-2.4-2.4l-2.5-2.4
					c-0.8-0.8-1.6-1.6-2.4-2.4C250.9,162.8,251.7,163.6,252.6,164.5z M249.6,166.5L259,185c-1.4-2.7-4.6-8-6.7-12.3
					C251.3,170.7,250.4,168.6,249.6,166.5L249.6,166.5z"/>
				<path class="st2" d="M249.6,166.5L249.6,166.5c0.6,0.7,0.9,1.5,1.4,2.3c0.4,0.7,0.7,1.5,1.1,2.3c0.3,0.7,0.7,1.5,1.1,2.3
					c0.3,0.8,0.7,1.6,1.1,2.4c0.8,1.6,1.6,3.1,2.5,4.6c0.8,1.5,1.7,3,2.3,4.6c-0.9-1.4-1.8-3-2.7-4.5l-2.6-4.5
					c-0.4-0.8-0.9-1.5-1.3-2.3c-0.4-0.7-0.9-1.5-1.2-2.3c-0.4-0.8-0.7-1.6-1-2.4C249.9,168.2,249.6,167.4,249.6,166.5L249.6,166.5z"
					/>
				<path class="st92" d="M242.9,194.7c0.2-4.2-2.3-7.5-2.3-7.5C241.3,189.2,242.2,192.5,242.9,194.7z M239.9,204
					c-0.7-4.4-1.6-13.4-1.6-13.4C238.6,199.3,238.8,198.9,239.9,204z M221.7,204.5c1.4,4.5,3,10.9,3.8,14.1
					C225.4,215.5,221.7,204.5,221.7,204.5L221.7,204.5z"/>
				<path class="st93" d="M202.3,205.1c4.6-8.6,10.6-18.6,10.6-18.6C206.3,192.9,203.5,200.8,202.3,205.1z"/>
				<path class="st94" d="M187.6,219.5c2.7-6.2,5.7-12.3,9-18.2C189.4,207.8,188.1,215.2,187.6,219.5z"/>
				<path class="st95" d="M148.6,216.1L148.6,216.1c1,0.6,4.8,2.9,5.1,2.7c0.3-0.3,0.1-2.3,0.4-2.6c0.3-0.3,3.7,1.3,3.7,1.3
					s0.9-0.9,2.1-0.9s3.4,1.4,4.8,1.7c1.4,0.3,1.5-0.1,2.9-1.2c1.4-1,3.7-1.5,4.1-3.1c0.4-1.6-0.4-2.3-1.3-2.8
					c0.1-2.4-0.6-6.1-2.3-8.3c-1.6-2.1-6.4-1.5-7.1-1.6c0.7-0.8,1.5-0.8,1.8-1.1c-2.9-0.7-3.6-0.4-8.3,0.2c-4.6,0.6-8.1-0.1-11-0.2
					c5.8-1.3,7.2-2.9,7.8-4.1c0.5-1.2-0.8-2.1-1.1-2.8c3.8-2.4,5.1-4,6.6-5.5c-2.8-0.2-3.9-1-3.9-1s1.5-0.5,1.7-1.2
					c-1.8,0-3.6-2.9-3.9-3.3c0.5-0.4,0.2-0.9,0.4-1.2c-1.2-0.6-1.7-1.9-4.9-3.4s-7.2-1-11.1-2.9c-3.9-1.9-4.4-4.4-8-7.4
					c-2.1-1.7-7.8-3.3-7.8-3.3c0.5-0.3,0.9-0.6,1.4-0.8c-9.3-3.5-12.9-2.3-15.3-1.9c2.1,4.1,4.9,6.3,8.3,9.9s1.3,7.3,1.3,7.3
					s1.7,1.3,5.4,2.3c3.2,0.8,8.3,1.2,11,1.7c-2.8,2.8-3.4,7.7-3.6,11.1c-0.1,2,1.3,3.1,2.6,4.1c0.6,0.4,1.2,0.9,1.7,1.4
					c0,0-3.3,2.7,1.5,4.8c3.4,1.4,3.9,2.6,5.4,4.4c1.6,1.7,2.9,1.9,4.6,2.8C145.5,212,147.5,215.5,148.6,216.1L148.6,216.1z"/>
			</g>
		</g>
	</g>
</g>
</svg>
